<svg width="1920" height="1080" viewBox="0 0 1920 1080" fill="none" xmlns="http://www.w3.org/2000/svg">
<g clip-path="url(#clip0)">
<rect width="1920" height="1080" fill="#E8ECF4"/>
<rect x="571.5" y="267.5" width="836" height="544" rx="55.5" fill="#E8ECF4" stroke="#6C8EE4" stroke-width="3"/>
<rect x="571.5" y="267.5" width="836" height="217" rx="55.5" fill="#E8ECF4" stroke="#6C8EE4" stroke-width="3"/>
<path d="M874.793 383.209C874.178 388.473 872.229 392.54 868.948 395.411C865.69 398.259 861.349 399.684 855.926 399.684C850.047 399.684 845.33 397.576 841.775 393.36C838.243 389.145 836.478 383.505 836.478 376.441V371.656C836.478 367.031 837.298 362.963 838.938 359.454C840.602 355.945 842.949 353.256 845.979 351.388C849.01 349.496 852.519 348.551 856.507 348.551C861.793 348.551 866.032 350.032 869.222 352.994C872.412 355.934 874.269 360.012 874.793 365.23H868.196C867.627 361.266 866.385 358.395 864.471 356.617C862.579 354.84 859.925 353.951 856.507 353.951C852.314 353.951 849.021 355.501 846.629 358.6C844.259 361.699 843.074 366.108 843.074 371.827V376.646C843.074 382.047 844.202 386.342 846.458 389.532C848.714 392.722 851.87 394.317 855.926 394.317C859.572 394.317 862.363 393.497 864.3 391.856C866.259 390.193 867.558 387.311 868.196 383.209H874.793ZM889.114 366.495C891.917 363.054 895.563 361.334 900.052 361.334C907.868 361.334 911.81 365.743 911.878 374.562V399H905.555V374.527C905.532 371.861 904.917 369.89 903.709 368.614C902.524 367.338 900.667 366.7 898.138 366.7C896.087 366.7 894.287 367.247 892.737 368.341C891.188 369.435 889.98 370.87 889.114 372.647V399H882.791V346.5H889.114V366.495ZM936.692 399.684C931.679 399.684 927.601 398.043 924.456 394.762C921.312 391.458 919.739 387.049 919.739 381.534V380.372C919.739 376.703 920.434 373.434 921.824 370.562C923.237 367.669 925.197 365.413 927.703 363.795C930.232 362.154 932.967 361.334 935.906 361.334C940.714 361.334 944.451 362.918 947.117 366.085C949.783 369.252 951.116 373.787 951.116 379.688V382.32H926.062C926.154 385.966 927.213 388.917 929.241 391.173C931.292 393.406 933.89 394.522 937.034 394.522C939.267 394.522 941.159 394.067 942.708 393.155C944.257 392.244 945.613 391.036 946.775 389.532L950.638 392.54C947.539 397.302 942.89 399.684 936.692 399.684ZM935.906 366.529C933.354 366.529 931.212 367.464 929.48 369.332C927.749 371.178 926.678 373.775 926.268 377.125H944.793V376.646C944.611 373.434 943.745 370.95 942.195 369.195C940.646 367.418 938.549 366.529 935.906 366.529ZM979.998 389.19C979.998 387.481 979.349 386.16 978.05 385.226C976.774 384.269 974.529 383.448 971.316 382.765C968.126 382.081 965.586 381.261 963.694 380.304C961.826 379.347 960.436 378.207 959.524 376.886C958.636 375.564 958.191 373.992 958.191 372.169C958.191 369.138 959.467 366.575 962.02 364.479C964.594 362.382 967.876 361.334 971.863 361.334C976.056 361.334 979.451 362.416 982.049 364.581C984.669 366.746 985.979 369.514 985.979 372.887H979.622C979.622 371.155 978.882 369.662 977.4 368.409C975.942 367.156 974.096 366.529 971.863 366.529C969.562 366.529 967.762 367.031 966.463 368.033C965.164 369.036 964.515 370.346 964.515 371.964C964.515 373.491 965.118 374.641 966.326 375.416C967.534 376.191 969.71 376.931 972.854 377.638C976.022 378.344 978.585 379.187 980.545 380.167C982.505 381.147 983.951 382.332 984.886 383.722C985.843 385.089 986.321 386.764 986.321 388.746C986.321 392.05 985 394.705 982.356 396.71C979.713 398.692 976.284 399.684 972.068 399.684C969.106 399.684 966.486 399.16 964.207 398.111C961.928 397.063 960.14 395.605 958.841 393.736C957.565 391.845 956.927 389.806 956.927 387.618H963.25C963.364 389.737 964.207 391.424 965.779 392.677C967.374 393.907 969.471 394.522 972.068 394.522C974.461 394.522 976.375 394.044 977.811 393.087C979.269 392.107 979.998 390.808 979.998 389.19ZM1016.09 389.19C1016.09 387.481 1015.44 386.16 1014.14 385.226C1012.87 384.269 1010.62 383.448 1007.41 382.765C1004.22 382.081 1001.68 381.261 999.788 380.304C997.92 379.347 996.53 378.207 995.618 376.886C994.729 375.564 994.285 373.992 994.285 372.169C994.285 369.138 995.561 366.575 998.113 364.479C1000.69 362.382 1003.97 361.334 1007.96 361.334C1012.15 361.334 1015.54 362.416 1018.14 364.581C1020.76 366.746 1022.07 369.514 1022.07 372.887H1015.72C1015.72 371.155 1014.98 369.662 1013.49 368.409C1012.04 367.156 1010.19 366.529 1007.96 366.529C1005.66 366.529 1003.86 367.031 1002.56 368.033C1001.26 369.036 1000.61 370.346 1000.61 371.964C1000.61 373.491 1001.21 374.641 1002.42 375.416C1003.63 376.191 1005.8 376.931 1008.95 377.638C1012.12 378.344 1014.68 379.187 1016.64 380.167C1018.6 381.147 1020.05 382.332 1020.98 383.722C1021.94 385.089 1022.42 386.764 1022.42 388.746C1022.42 392.05 1021.09 394.705 1018.45 396.71C1015.81 398.692 1012.38 399.684 1008.16 399.684C1005.2 399.684 1002.58 399.16 1000.3 398.111C998.022 397.063 996.233 395.605 994.935 393.736C993.659 391.845 993.021 389.806 993.021 387.618H999.344C999.458 389.737 1000.3 391.424 1001.87 392.677C1003.47 393.907 1005.56 394.522 1008.16 394.522C1010.55 394.522 1012.47 394.044 1013.9 393.087C1015.36 392.107 1016.09 390.808 1016.09 389.19ZM1030.79 395.685C1030.79 394.591 1031.11 393.679 1031.75 392.95C1032.41 392.221 1033.39 391.856 1034.69 391.856C1035.98 391.856 1036.96 392.221 1037.62 392.95C1038.31 393.679 1038.65 394.591 1038.65 395.685C1038.65 396.733 1038.31 397.61 1037.62 398.316C1036.96 399.023 1035.98 399.376 1034.69 399.376C1033.39 399.376 1032.41 399.023 1031.75 398.316C1031.11 397.61 1030.79 396.733 1030.79 395.685ZM1047.43 380.167C1047.43 376.544 1048.14 373.285 1049.55 370.392C1050.99 367.498 1052.97 365.265 1055.5 363.692C1058.05 362.12 1060.96 361.334 1064.22 361.334C1069.25 361.334 1073.32 363.077 1076.42 366.563C1079.54 370.05 1081.1 374.687 1081.1 380.475V380.919C1081.1 384.519 1080.41 387.755 1079.02 390.626C1077.65 393.474 1075.68 395.696 1073.1 397.291C1070.55 398.886 1067.61 399.684 1064.29 399.684C1059.27 399.684 1055.2 397.94 1052.08 394.454C1048.98 390.968 1047.43 386.354 1047.43 380.611V380.167ZM1053.79 380.919C1053.79 385.021 1054.74 388.313 1056.63 390.797C1058.54 393.281 1061.1 394.522 1064.29 394.522C1067.5 394.522 1070.05 393.269 1071.94 390.763C1073.83 388.233 1074.78 384.701 1074.78 380.167C1074.78 376.111 1073.81 372.83 1071.87 370.323C1069.96 367.794 1067.41 366.529 1064.22 366.529C1061.1 366.529 1058.58 367.771 1056.66 370.255C1054.75 372.739 1053.79 376.293 1053.79 380.919ZM1106.91 367.691C1105.95 367.532 1104.91 367.452 1103.8 367.452C1099.65 367.452 1096.84 369.218 1095.35 372.75V399H1089.03V362.018H1095.18L1095.29 366.29C1097.36 362.986 1100.3 361.334 1104.1 361.334C1105.33 361.334 1106.27 361.493 1106.91 361.812V367.691ZM1110.56 380.201C1110.56 374.436 1111.9 369.856 1114.56 366.461C1117.23 363.043 1120.76 361.334 1125.16 361.334C1129.67 361.334 1133.19 362.929 1135.72 366.119L1136.03 362.018H1141.8V398.111C1141.8 402.896 1140.38 406.668 1137.53 409.425C1134.71 412.182 1130.9 413.561 1126.12 413.561C1123.45 413.561 1120.84 412.991 1118.29 411.852C1115.74 410.712 1113.79 409.151 1112.44 407.169L1115.73 403.375C1118.44 406.725 1121.75 408.399 1125.67 408.399C1128.75 408.399 1131.14 407.534 1132.85 405.802C1134.58 404.07 1135.45 401.632 1135.45 398.487V395.309C1132.92 398.225 1129.47 399.684 1125.09 399.684C1120.76 399.684 1117.25 397.94 1114.56 394.454C1111.9 390.968 1110.56 386.217 1110.56 380.201ZM1116.92 380.919C1116.92 385.089 1117.78 388.37 1119.49 390.763C1121.19 393.132 1123.59 394.317 1126.66 394.317C1130.65 394.317 1133.58 392.506 1135.45 388.883V371.998C1133.51 368.466 1130.61 366.7 1126.73 366.7C1123.66 366.7 1121.25 367.896 1119.52 370.289C1117.79 372.682 1116.92 376.225 1116.92 380.919Z" fill="#6C8EE4"/>
<rect x="654" y="591" width="671" height="75" rx="20" fill="#6C8EE4"/>
<path d="M914.23 630.32V637H911.98V619.938H918.273C920.141 619.938 921.602 620.414 922.656 621.367C923.719 622.32 924.25 623.582 924.25 625.152C924.25 626.809 923.73 628.086 922.691 628.984C921.66 629.875 920.18 630.32 918.25 630.32H914.23ZM914.23 628.48H918.273C919.477 628.48 920.398 628.199 921.039 627.637C921.68 627.066 922 626.246 922 625.176C922 624.16 921.68 623.348 921.039 622.738C920.398 622.129 919.52 621.812 918.402 621.789H914.23V628.48ZM929.137 637H926.969V619H929.137V637ZM940.445 637C940.32 636.75 940.219 636.305 940.141 635.664C939.133 636.711 937.93 637.234 936.531 637.234C935.281 637.234 934.254 636.883 933.449 636.18C932.652 635.469 932.254 634.57 932.254 633.484C932.254 632.164 932.754 631.141 933.754 630.414C934.762 629.68 936.176 629.312 937.996 629.312H940.105V628.316C940.105 627.559 939.879 626.957 939.426 626.512C938.973 626.059 938.305 625.832 937.422 625.832C936.648 625.832 936 626.027 935.477 626.418C934.953 626.809 934.691 627.281 934.691 627.836H932.512C932.512 627.203 932.734 626.594 933.18 626.008C933.633 625.414 934.242 624.945 935.008 624.602C935.781 624.258 936.629 624.086 937.551 624.086C939.012 624.086 940.156 624.453 940.984 625.188C941.812 625.914 942.242 626.918 942.273 628.199V634.035C942.273 635.199 942.422 636.125 942.719 636.812V637H940.445ZM936.848 635.348C937.527 635.348 938.172 635.172 938.781 634.82C939.391 634.469 939.832 634.012 940.105 633.449V630.848H938.406C935.75 630.848 934.422 631.625 934.422 633.18C934.422 633.859 934.648 634.391 935.102 634.773C935.555 635.156 936.137 635.348 936.848 635.348ZM949.633 633.824L952.586 624.32H954.906L949.809 638.957C949.02 641.066 947.766 642.121 946.047 642.121L945.637 642.086L944.828 641.934V640.176L945.414 640.223C946.148 640.223 946.719 640.074 947.125 639.777C947.539 639.48 947.879 638.938 948.145 638.148L948.625 636.859L944.102 624.32H946.469L949.633 633.824ZM970.633 637C970.508 636.75 970.406 636.305 970.328 635.664C969.32 636.711 968.117 637.234 966.719 637.234C965.469 637.234 964.441 636.883 963.637 636.18C962.84 635.469 962.441 634.57 962.441 633.484C962.441 632.164 962.941 631.141 963.941 630.414C964.949 629.68 966.363 629.312 968.184 629.312H970.293V628.316C970.293 627.559 970.066 626.957 969.613 626.512C969.16 626.059 968.492 625.832 967.609 625.832C966.836 625.832 966.188 626.027 965.664 626.418C965.141 626.809 964.879 627.281 964.879 627.836H962.699C962.699 627.203 962.922 626.594 963.367 626.008C963.82 625.414 964.43 624.945 965.195 624.602C965.969 624.258 966.816 624.086 967.738 624.086C969.199 624.086 970.344 624.453 971.172 625.188C972 625.914 972.43 626.918 972.461 628.199V634.035C972.461 635.199 972.609 636.125 972.906 636.812V637H970.633ZM967.035 635.348C967.715 635.348 968.359 635.172 968.969 634.82C969.578 634.469 970.02 634.012 970.293 633.449V630.848H968.594C965.938 630.848 964.609 631.625 964.609 633.18C964.609 633.859 964.836 634.391 965.289 634.773C965.742 635.156 966.324 635.348 967.035 635.348ZM975.344 630.555C975.344 628.578 975.801 627.008 976.715 625.844C977.629 624.672 978.84 624.086 980.348 624.086C981.895 624.086 983.102 624.633 983.969 625.727L984.074 624.32H986.055V636.695C986.055 638.336 985.566 639.629 984.59 640.574C983.621 641.52 982.316 641.992 980.676 641.992C979.762 641.992 978.867 641.797 977.992 641.406C977.117 641.016 976.449 640.48 975.988 639.801L977.113 638.5C978.043 639.648 979.18 640.223 980.523 640.223C981.578 640.223 982.398 639.926 982.984 639.332C983.578 638.738 983.875 637.902 983.875 636.824V635.734C983.008 636.734 981.824 637.234 980.324 637.234C978.84 637.234 977.637 636.637 976.715 635.441C975.801 634.246 975.344 632.617 975.344 630.555ZM977.523 630.801C977.523 632.23 977.816 633.355 978.402 634.176C978.988 634.988 979.809 635.395 980.863 635.395C982.23 635.395 983.234 634.773 983.875 633.531V627.742C983.211 626.531 982.215 625.926 980.887 625.926C979.832 625.926 979.008 626.336 978.414 627.156C977.82 627.977 977.523 629.191 977.523 630.801ZM997.164 637C997.039 636.75 996.938 636.305 996.859 635.664C995.852 636.711 994.648 637.234 993.25 637.234C992 637.234 990.973 636.883 990.168 636.18C989.371 635.469 988.973 634.57 988.973 633.484C988.973 632.164 989.473 631.141 990.473 630.414C991.48 629.68 992.895 629.312 994.715 629.312H996.824V628.316C996.824 627.559 996.598 626.957 996.145 626.512C995.691 626.059 995.023 625.832 994.141 625.832C993.367 625.832 992.719 626.027 992.195 626.418C991.672 626.809 991.41 627.281 991.41 627.836H989.23C989.23 627.203 989.453 626.594 989.898 626.008C990.352 625.414 990.961 624.945 991.727 624.602C992.5 624.258 993.348 624.086 994.27 624.086C995.73 624.086 996.875 624.453 997.703 625.188C998.531 625.914 998.961 626.918 998.992 628.199V634.035C998.992 635.199 999.141 636.125 999.438 636.812V637H997.164ZM993.566 635.348C994.246 635.348 994.891 635.172 995.5 634.82C996.109 634.469 996.551 634.012 996.824 633.449V630.848H995.125C992.469 630.848 991.141 631.625 991.141 633.18C991.141 633.859 991.367 634.391 991.82 634.773C992.273 635.156 992.855 635.348 993.566 635.348ZM1004.75 637H1002.58V624.32H1004.75V637ZM1002.4 620.957C1002.4 620.605 1002.51 620.309 1002.72 620.066C1002.94 619.824 1003.26 619.703 1003.68 619.703C1004.1 619.703 1004.42 619.824 1004.64 620.066C1004.86 620.309 1004.97 620.605 1004.97 620.957C1004.97 621.309 1004.86 621.602 1004.64 621.836C1004.42 622.07 1004.1 622.188 1003.68 622.188C1003.26 622.188 1002.94 622.07 1002.72 621.836C1002.51 621.602 1002.4 621.309 1002.4 620.957ZM1010.28 624.32L1010.35 625.914C1011.32 624.695 1012.58 624.086 1014.14 624.086C1016.82 624.086 1018.18 625.598 1018.2 628.621V637H1016.03V628.609C1016.02 627.695 1015.81 627.02 1015.4 626.582C1014.99 626.145 1014.36 625.926 1013.49 625.926C1012.79 625.926 1012.17 626.113 1011.64 626.488C1011.11 626.863 1010.69 627.355 1010.39 627.965V637H1008.23V624.32H1010.28ZM1028.85 633.637C1028.85 633.051 1028.63 632.598 1028.18 632.277C1027.75 631.949 1026.98 631.668 1025.88 631.434C1024.78 631.199 1023.91 630.918 1023.26 630.59C1022.62 630.262 1022.14 629.871 1021.83 629.418C1021.53 628.965 1021.38 628.426 1021.38 627.801C1021.38 626.762 1021.81 625.883 1022.69 625.164C1023.57 624.445 1024.7 624.086 1026.06 624.086C1027.5 624.086 1028.66 624.457 1029.55 625.199C1030.45 625.941 1030.9 626.891 1030.9 628.047H1028.72C1028.72 627.453 1028.47 626.941 1027.96 626.512C1027.46 626.082 1026.83 625.867 1026.06 625.867C1025.27 625.867 1024.66 626.039 1024.21 626.383C1023.77 626.727 1023.54 627.176 1023.54 627.73C1023.54 628.254 1023.75 628.648 1024.16 628.914C1024.58 629.18 1025.32 629.434 1026.4 629.676C1027.49 629.918 1028.37 630.207 1029.04 630.543C1029.71 630.879 1030.21 631.285 1030.53 631.762C1030.86 632.23 1031.02 632.805 1031.02 633.484C1031.02 634.617 1030.57 635.527 1029.66 636.215C1028.75 636.895 1027.58 637.234 1026.13 637.234C1025.12 637.234 1024.22 637.055 1023.44 636.695C1022.66 636.336 1022.04 635.836 1021.6 635.195C1021.16 634.547 1020.94 633.848 1020.94 633.098H1023.11C1023.15 633.824 1023.44 634.402 1023.98 634.832C1024.52 635.254 1025.24 635.465 1026.13 635.465C1026.95 635.465 1027.61 635.301 1028.1 634.973C1028.6 634.637 1028.85 634.191 1028.85 633.637ZM1036.79 621.25V624.32H1039.15V625.996H1036.79V633.859C1036.79 634.367 1036.89 634.75 1037.1 635.008C1037.31 635.258 1037.67 635.383 1038.18 635.383C1038.43 635.383 1038.77 635.336 1039.21 635.242V637C1038.64 637.156 1038.09 637.234 1037.55 637.234C1036.58 637.234 1035.85 636.941 1035.36 636.355C1034.86 635.77 1034.62 634.938 1034.62 633.859V625.996H1032.31V624.32H1034.62V621.25H1036.79ZM1057.41 632.547H1050.26L1048.66 637H1046.34L1052.85 619.938H1054.82L1061.35 637H1059.04L1057.41 632.547ZM1050.94 630.695H1056.74L1053.84 622.715L1050.94 630.695ZM1066.06 637H1063.81V619.938H1066.06V637Z" fill="#E8ECF4"/>
<rect x="654" y="699" width="671" height="75" rx="20" fill="#6C8EE4"/>
<path d="M934.23 738.32V745H931.98V727.938H938.273C940.141 727.938 941.602 728.414 942.656 729.367C943.719 730.32 944.25 731.582 944.25 733.152C944.25 734.809 943.73 736.086 942.691 736.984C941.66 737.875 940.18 738.32 938.25 738.32H934.23ZM934.23 736.48H938.273C939.477 736.48 940.398 736.199 941.039 735.637C941.68 735.066 942 734.246 942 733.176C942 732.16 941.68 731.348 941.039 730.738C940.398 730.129 939.52 729.812 938.402 729.789H934.23V736.48ZM949.137 745H946.969V727H949.137V745ZM960.445 745C960.32 744.75 960.219 744.305 960.141 743.664C959.133 744.711 957.93 745.234 956.531 745.234C955.281 745.234 954.254 744.883 953.449 744.18C952.652 743.469 952.254 742.57 952.254 741.484C952.254 740.164 952.754 739.141 953.754 738.414C954.762 737.68 956.176 737.312 957.996 737.312H960.105V736.316C960.105 735.559 959.879 734.957 959.426 734.512C958.973 734.059 958.305 733.832 957.422 733.832C956.648 733.832 956 734.027 955.477 734.418C954.953 734.809 954.691 735.281 954.691 735.836H952.512C952.512 735.203 952.734 734.594 953.18 734.008C953.633 733.414 954.242 732.945 955.008 732.602C955.781 732.258 956.629 732.086 957.551 732.086C959.012 732.086 960.156 732.453 960.984 733.188C961.812 733.914 962.242 734.918 962.273 736.199V742.035C962.273 743.199 962.422 744.125 962.719 744.812V745H960.445ZM956.848 743.348C957.527 743.348 958.172 743.172 958.781 742.82C959.391 742.469 959.832 742.012 960.105 741.449V738.848H958.406C955.75 738.848 954.422 739.625 954.422 741.18C954.422 741.859 954.648 742.391 955.102 742.773C955.555 743.156 956.137 743.348 956.848 743.348ZM969.633 741.824L972.586 732.32H974.906L969.809 746.957C969.02 749.066 967.766 750.121 966.047 750.121L965.637 750.086L964.828 749.934V748.176L965.414 748.223C966.148 748.223 966.719 748.074 967.125 747.777C967.539 747.48 967.879 746.938 968.145 746.148L968.625 744.859L964.102 732.32H966.469L969.633 741.824ZM996.27 737.02C996.27 738.691 995.988 740.152 995.426 741.402C994.863 742.645 994.066 743.594 993.035 744.25C992.004 744.906 990.801 745.234 989.426 745.234C988.082 745.234 986.891 744.906 985.852 744.25C984.812 743.586 984.004 742.645 983.426 741.426C982.855 740.199 982.562 738.781 982.547 737.172V735.941C982.547 734.301 982.832 732.852 983.402 731.594C983.973 730.336 984.777 729.375 985.816 728.711C986.863 728.039 988.059 727.703 989.402 727.703C990.77 727.703 991.973 728.035 993.012 728.699C994.059 729.355 994.863 730.312 995.426 731.57C995.988 732.82 996.27 734.277 996.27 735.941V737.02ZM994.031 735.918C994.031 733.895 993.625 732.344 992.812 731.266C992 730.18 990.863 729.637 989.402 729.637C987.98 729.637 986.859 730.18 986.039 731.266C985.227 732.344 984.809 733.844 984.785 735.766V737.02C984.785 738.98 985.195 740.523 986.016 741.648C986.844 742.766 987.98 743.324 989.426 743.324C990.879 743.324 992.004 742.797 992.801 741.742C993.598 740.68 994.008 739.16 994.031 737.184V735.918ZM1001.36 732.32L1001.43 733.914C1002.39 732.695 1003.66 732.086 1005.22 732.086C1007.9 732.086 1009.25 733.598 1009.28 736.621V745H1007.11V736.609C1007.1 735.695 1006.89 735.02 1006.48 734.582C1006.07 734.145 1005.43 733.926 1004.57 733.926C1003.86 733.926 1003.25 734.113 1002.71 734.488C1002.18 734.863 1001.77 735.355 1001.47 735.965V745H999.305V732.32H1001.36ZM1014.9 745H1012.73V727H1014.9V745ZM1020.74 745H1018.57V732.32H1020.74V745ZM1018.39 728.957C1018.39 728.605 1018.5 728.309 1018.71 728.066C1018.93 727.824 1019.25 727.703 1019.67 727.703C1020.09 727.703 1020.41 727.824 1020.63 728.066C1020.85 728.309 1020.96 728.605 1020.96 728.957C1020.96 729.309 1020.85 729.602 1020.63 729.836C1020.41 730.07 1020.09 730.188 1019.67 730.188C1019.25 730.188 1018.93 730.07 1018.71 729.836C1018.5 729.602 1018.39 729.309 1018.39 728.957ZM1026.27 732.32L1026.34 733.914C1027.31 732.695 1028.57 732.086 1030.14 732.086C1032.82 732.086 1034.17 733.598 1034.19 736.621V745H1032.02V736.609C1032.02 735.695 1031.8 735.02 1031.39 734.582C1030.98 734.145 1030.35 733.926 1029.48 733.926C1028.78 733.926 1028.16 734.113 1027.63 734.488C1027.1 734.863 1026.68 735.355 1026.39 735.965V745H1024.22V732.32H1026.27ZM1042.72 745.234C1041 745.234 1039.61 744.672 1038.53 743.547C1037.45 742.414 1036.91 740.902 1036.91 739.012V738.613C1036.91 737.355 1037.15 736.234 1037.62 735.25C1038.11 734.258 1038.78 733.484 1039.64 732.93C1040.51 732.367 1041.45 732.086 1042.45 732.086C1044.1 732.086 1045.38 732.629 1046.3 733.715C1047.21 734.801 1047.67 736.355 1047.67 738.379V739.281H1039.08C1039.11 740.531 1039.47 741.543 1040.17 742.316C1040.87 743.082 1041.76 743.465 1042.84 743.465C1043.61 743.465 1044.25 743.309 1044.79 742.996C1045.32 742.684 1045.78 742.27 1046.18 741.754L1047.5 742.785C1046.44 744.418 1044.85 745.234 1042.72 745.234ZM1042.45 733.867C1041.58 733.867 1040.84 734.188 1040.25 734.828C1039.66 735.461 1039.29 736.352 1039.15 737.5H1045.5V737.336C1045.44 736.234 1045.14 735.383 1044.61 734.781C1044.08 734.172 1043.36 733.867 1042.45 733.867Z" fill="#E8ECF4"/>
<path d="M1988.5 11C1494.5 -10 403.2 35.4 -10 385V-107L1988.5 11Z" fill="#6C8EE4"/>
<path d="M176.809 1215.02C671.081 1201.88 1756.65 1081.28 2144.74 704L2178.69 1194.83L176.809 1215.02Z" fill="#6C8EE4"/>
<path d="M1800.51 5.54995L1785.04 -1.50006L1934.08 -13.5189L1922 9.94223L1841.01 5.68071L1800.51 5.54995Z" fill="#6C8EE4"/>
<g filter="url(#filter0_d)">
<circle cx="1873" cy="51" r="25" fill="#E8ECF4"/>
<circle cx="1873" cy="51" r="25.75" stroke="#6C8EE4" stroke-width="1.5"/>
</g>
<path d="M1870.77 73.2375L1869.45 67.9488L1869.11 67.8595C1866.23 67.0864 1863.6 65.573 1861.51 63.4838L1861.26 63.2394L1856.04 64.7328L1853.31 60.0035L1857.23 56.2141L1857.14 55.8804C1856.75 54.4081 1856.55 52.9335 1856.55 51.5C1856.55 50.0665 1856.75 48.5919 1857.14 47.1184L1857.23 46.7847L1853.31 42.9953L1856.04 38.266L1861.26 39.7594L1861.51 39.515C1863.6 37.4247 1866.23 35.9124 1869.11 35.1393L1869.45 35.05L1870.77 29.7625H1876.23L1877.55 35.0512L1877.89 35.1405C1880.77 35.9124 1883.4 37.4258 1885.49 39.5162L1885.74 39.7606L1890.96 38.2671L1893.69 42.9965L1889.77 46.7859L1889.86 47.1196C1890.25 48.5919 1890.45 50.0653 1890.45 51.5C1890.45 52.9335 1890.25 54.4081 1889.86 55.8816L1889.77 56.2153L1893.69 60.0035L1890.96 64.734L1885.74 63.2394L1885.49 63.4838C1883.4 65.5741 1880.77 67.0864 1877.89 67.8595L1877.55 67.9488L1876.23 73.2375H1870.77ZM1873.5 42.1423C1868.34 42.1423 1864.14 46.3406 1864.14 51.5C1864.14 56.6594 1868.34 60.8577 1873.5 60.8577C1878.66 60.8577 1882.86 56.6594 1882.86 51.5C1882.86 46.3406 1878.66 42.1423 1873.5 42.1423Z" fill="#B6DCFE"/>
<path d="M1875.77 30.35L1876.9 34.8585L1877.07 35.5294L1877.73 35.708C1880.52 36.4541 1883.06 37.9147 1885.08 39.931L1885.56 40.4209L1886.23 40.2306L1890.68 38.9581L1892.95 42.8931L1889.61 46.1232L1889.11 46.6038L1889.29 47.2712C1889.67 48.6941 1889.87 50.117 1889.87 51.5C1889.87 52.883 1889.67 54.3059 1889.29 55.7288L1889.11 56.3962L1889.61 56.8768L1892.95 60.1069L1890.68 64.042L1886.23 62.7694L1885.56 62.5791L1885.08 63.0691C1883.06 65.0854 1880.52 66.5459 1877.73 67.292L1877.07 67.4706L1876.9 68.1415L1875.77 72.65H1871.23L1870.1 68.1415L1869.93 67.4706L1869.27 67.292C1866.48 66.5459 1863.94 65.0854 1861.92 63.0691L1861.44 62.5791L1860.77 62.7694L1856.32 64.042L1854.05 60.1069L1857.39 56.8768L1857.89 56.3962L1857.71 55.7288C1857.33 54.3059 1857.13 52.883 1857.13 51.5C1857.13 50.117 1857.33 48.6941 1857.71 47.2712L1857.89 46.6038L1857.39 46.1232L1854.05 42.8931L1856.32 38.9581L1860.77 40.2306L1861.44 40.4209L1861.92 39.931C1863.94 37.9147 1866.48 36.4541 1869.27 35.708L1869.93 35.5294L1870.1 34.8585L1871.23 30.35H1875.77ZM1873.5 61.4452C1878.98 61.4452 1883.45 56.9837 1883.45 51.5C1883.45 46.0163 1878.98 41.5548 1873.5 41.5548C1868.02 41.5548 1863.55 46.0163 1863.55 51.5C1863.55 56.9837 1868.02 61.4452 1873.5 61.4452ZM1876.69 29.175H1870.31L1868.96 34.573C1865.94 35.3814 1863.24 36.9547 1861.09 39.1002L1855.76 37.5751L1852.57 43.0988L1856.57 46.9669C1856.19 48.4156 1855.96 49.9302 1855.96 51.5C1855.96 53.0698 1856.18 54.5844 1856.57 56.032L1852.57 59.9001L1855.76 65.4238L1861.09 63.8986C1863.24 66.0442 1865.94 67.6175 1868.96 68.4259L1870.31 73.825H1876.69L1878.04 68.4271C1881.06 67.6187 1883.76 66.0453 1885.91 63.8998L1891.24 65.4249L1894.43 59.9013L1890.43 56.0332C1890.81 54.5856 1891.04 53.071 1891.04 51.5012C1891.04 49.9314 1890.82 48.4168 1890.43 46.9692L1894.43 43.1011L1891.24 37.5774L1885.91 39.1026C1883.76 36.957 1881.06 35.3837 1878.04 34.5753L1876.69 29.175ZM1873.5 60.2702C1868.66 60.2702 1864.73 56.3434 1864.73 51.5C1864.73 46.6567 1868.66 42.7298 1873.5 42.7298C1878.34 42.7298 1882.27 46.6567 1882.27 51.5C1882.27 56.3434 1878.34 60.2702 1873.5 60.2702Z" fill="#4788C7"/>
<path d="M1873.5 63.8375C1866.7 63.8375 1861.16 58.3032 1861.16 51.5C1861.16 44.6967 1866.7 39.1625 1873.5 39.1625C1880.3 39.1625 1885.84 44.6967 1885.84 51.5C1885.84 58.3032 1880.3 63.8375 1873.5 63.8375ZM1873.5 46.2125C1870.58 46.2125 1868.21 48.5848 1868.21 51.5C1868.21 54.4152 1870.58 56.7875 1873.5 56.7875C1876.42 56.7875 1878.79 54.4152 1878.79 51.5C1878.79 48.5848 1876.42 46.2125 1873.5 46.2125Z" fill="#DFF0FE"/>
<path d="M1873.5 39.75C1879.98 39.75 1885.25 45.021 1885.25 51.5C1885.25 57.9789 1879.98 63.25 1873.5 63.25C1867.02 63.25 1861.75 57.9789 1861.75 51.5C1861.75 45.021 1867.02 39.75 1873.5 39.75ZM1873.5 57.375C1876.74 57.375 1879.38 54.7395 1879.38 51.5C1879.38 48.2605 1876.74 45.625 1873.5 45.625C1870.26 45.625 1867.63 48.2605 1867.63 51.5C1867.63 54.7395 1870.26 57.375 1873.5 57.375ZM1873.5 38.575C1866.36 38.575 1860.58 44.3619 1860.58 51.5C1860.58 58.6381 1866.36 64.425 1873.5 64.425C1880.64 64.425 1886.43 58.6381 1886.43 51.5C1886.43 44.3619 1880.64 38.575 1873.5 38.575ZM1873.5 56.2C1870.9 56.2 1868.8 54.0956 1868.8 51.5C1868.8 48.9044 1870.9 46.8 1873.5 46.8C1876.1 46.8 1878.2 48.9044 1878.2 51.5C1878.2 54.0956 1876.1 56.2 1873.5 56.2Z" fill="#4788C7"/>
<g filter="url(#filter1_d)">
<circle cx="1805" cy="51" r="25" fill="#E8ECF4"/>
<circle cx="1805" cy="51" r="25.75" stroke="#6C8EE4" stroke-width="1.5"/>
</g>
<g clip-path="url(#clip1)">
<path d="M1819.6 58.9725C1819.93 58.4774 1820.23 57.9646 1820.5 57.4364C1819.29 58.4832 1817.92 59.3311 1816.44 59.9486C1817.53 59.7394 1818.59 59.4121 1819.6 58.9725Z" fill="#D4E1F4"/>
<path d="M1806.05 65.1926C1801.73 64.4522 1797.96 62.1021 1795.42 58.575C1793.19 55.4717 1792.12 51.6813 1792.4 47.8687C1792.68 44.0561 1794.3 40.4646 1796.96 37.724C1797.84 36.8285 1798.81 36.0351 1799.86 35.3593C1800.21 35.0111 1800.59 34.6803 1800.97 34.367C1798.32 35.1732 1795.92 36.6378 1793.99 38.6241C1791.32 41.3647 1789.71 44.9562 1789.42 48.7689C1789.14 52.5815 1790.21 56.3718 1792.44 59.4751C1794.98 63.0022 1798.75 65.3524 1803.07 66.0927C1806.13 66.6146 1809.27 66.2702 1812.14 65.0985C1810.13 65.5055 1808.06 65.5374 1806.05 65.1926Z" fill="#D4E1F4"/>
<path d="M1821.65 55.7805C1821.54 55.7086 1821.41 55.6775 1821.28 55.6927C1821.15 55.7079 1821.03 55.7684 1820.94 55.8635C1819.3 57.5785 1817.26 58.8596 1815.01 59.592C1812.75 60.3244 1810.35 60.4852 1808.01 60.0599C1804.24 59.3812 1800.97 57.2961 1798.79 54.1888C1797.69 52.6354 1796.93 50.8783 1796.53 49.022C1796.13 47.1657 1796.11 45.2482 1796.46 43.3835C1796.82 41.5189 1797.55 39.7452 1798.61 38.1679C1799.67 36.5907 1801.03 35.2422 1802.62 34.2026C1802.73 34.1314 1802.81 34.0244 1802.84 33.9001C1802.88 33.7759 1802.88 33.6422 1802.83 33.5223C1802.78 33.4023 1802.69 33.3037 1802.57 33.2435C1802.45 33.1832 1802.32 33.1651 1802.2 33.1924C1798.84 33.8988 1795.78 35.587 1793.39 38.042C1790.59 40.923 1788.89 44.6986 1788.59 48.7068C1788.29 52.7149 1789.42 56.6997 1791.77 59.9622C1794.43 63.668 1798.4 66.1372 1802.93 66.9147C1806.85 67.5853 1810.87 66.895 1814.34 64.9585C1817.74 63.0562 1820.39 60.0589 1821.86 56.4558C1821.91 56.3361 1821.92 56.2027 1821.88 56.0792C1821.84 55.9556 1821.76 55.8498 1821.65 55.7805ZM1813.94 64.2312C1810.63 66.0743 1806.8 66.7312 1803.07 66.0927C1798.75 65.3523 1794.98 63.0022 1792.44 59.4751C1790.21 56.3718 1789.14 52.5814 1789.42 48.7688C1789.71 44.9562 1791.32 41.3647 1793.99 38.6242C1795.92 36.6378 1798.32 35.1732 1800.98 34.367C1798.01 36.7548 1796.06 40.1806 1795.53 43.9502C1795 47.7198 1795.92 51.5511 1798.1 54.6676C1800.41 57.9561 1803.88 60.1626 1807.87 60.8806C1807.91 60.8878 1807.95 60.8955 1807.99 60.9028C1810.2 61.2866 1812.47 61.1748 1814.64 60.5753C1816.8 59.9759 1818.8 58.9038 1820.5 57.4364C1819.02 60.2952 1816.74 62.6578 1813.94 64.2309L1813.94 64.2312Z" fill="#6C8EE4"/>
</g>
<g filter="url(#filter2_d)">
<path d="M1735 26.8333C1721.65 26.8333 1710.83 37.6533 1710.83 51C1710.83 56.86 1712.92 62.2317 1716.39 66.4158C1718 59.835 1723.02 54.605 1729.47 52.6617C1726.78 50.8692 1725 47.81 1725 44.3333C1725 38.8108 1729.48 34.3333 1735 34.3333C1740.52 34.3333 1745 38.8108 1745 44.3333C1745 47.81 1743.22 50.8692 1740.53 52.6617C1746.98 54.605 1751.99 59.835 1753.61 66.4158C1757.08 62.2317 1759.17 56.86 1759.17 51C1759.17 37.6533 1748.35 26.8333 1735 26.8333Z" fill="#E8ECF4"/>
<path d="M1740.53 52.6617C1743.22 50.8692 1745 47.81 1745 44.3333C1745 38.8108 1740.52 34.3333 1735 34.3333C1729.48 34.3333 1725 38.8108 1725 44.3333C1725 47.81 1726.78 50.8692 1729.47 52.6617C1723.02 54.605 1718.01 59.835 1716.39 66.4158C1716.39 66.4158 1716.39 66.4167 1716.39 66.4167C1716.65 66.7342 1716.93 67.0442 1717.21 67.3483C1717.27 67.4225 1717.35 67.4933 1717.41 67.5658C1717.63 67.7942 1717.85 68.0192 1718.07 68.2392C1718.16 68.33 1718.26 68.4175 1718.35 68.5067C1718.56 68.7033 1718.77 68.8975 1718.98 69.0867C1719.09 69.18 1719.19 69.2725 1719.3 69.3642C1719.51 69.5433 1719.72 69.7192 1719.94 69.8908C1720.05 69.9817 1720.16 70.0708 1720.28 70.16C1720.5 70.3284 1720.72 70.4917 1720.94 70.6517C1721.06 70.7342 1721.17 70.8183 1721.29 70.8992C1721.53 71.0625 1721.77 71.2192 1722.01 71.3742C1722.12 71.4433 1722.23 71.515 1722.34 71.5833C1722.62 71.7558 1722.9 71.9208 1723.19 72.0825C1723.26 72.125 1723.34 72.1708 1723.42 72.2125C1723.79 72.4159 1724.16 72.6108 1724.55 72.795C1724.56 72.7992 1724.57 72.8033 1724.58 72.8075C1724.94 72.9825 1725.31 73.1483 1725.69 73.305C1725.81 73.3542 1725.93 73.3975 1726.04 73.4442C1726.31 73.5525 1726.59 73.6592 1726.86 73.7575C1727.01 73.81 1727.16 73.8575 1727.31 73.9075C1727.56 73.9925 1727.81 74.075 1728.07 74.1508C1728.23 74.1992 1728.39 74.2442 1728.55 74.2892C1728.8 74.3575 1729.05 74.4225 1729.3 74.4833C1729.47 74.5242 1729.64 74.5633 1729.81 74.6008C1730.06 74.6558 1730.31 74.7058 1730.56 74.7525C1730.74 74.7842 1730.91 74.8167 1731.08 74.8442C1731.34 74.8867 1731.61 74.9225 1731.87 74.9567C1732.04 74.9784 1732.2 75.0025 1732.37 75.02C1732.66 75.0517 1732.96 75.0742 1733.25 75.095C1733.39 75.105 1733.53 75.12 1733.68 75.1275C1734.11 75.1525 1734.56 75.1667 1735 75.1667C1735.45 75.1667 1735.89 75.1525 1736.33 75.1292C1736.47 75.1217 1736.61 75.1067 1736.75 75.0967C1737.05 75.0759 1737.34 75.0533 1737.63 75.0217C1737.8 75.0033 1737.96 74.98 1738.13 74.9584C1738.4 74.9242 1738.66 74.8884 1738.92 74.8459C1739.09 74.8175 1739.26 74.7859 1739.44 74.7542C1739.69 74.7075 1739.94 74.6575 1740.19 74.6025C1740.36 74.565 1740.53 74.5258 1740.7 74.485C1740.95 74.4242 1741.2 74.3592 1741.45 74.2909C1741.61 74.2458 1741.77 74.2009 1741.94 74.1525C1742.19 74.0759 1742.44 73.9934 1742.7 73.9092C1742.84 73.8592 1742.99 73.8117 1743.14 73.7592C1743.41 73.66 1743.69 73.5542 1743.96 73.4459C1744.08 73.3992 1744.19 73.355 1744.31 73.3067C1744.69 73.15 1745.06 72.9858 1745.42 72.8108C1745.43 72.8058 1745.44 72.8008 1745.45 72.7958C1745.84 72.6117 1746.21 72.4167 1746.59 72.2133C1746.66 72.1717 1746.74 72.1258 1746.81 72.0833C1747.1 71.9217 1747.38 71.7567 1747.66 71.5842C1747.77 71.5167 1747.88 71.445 1747.99 71.375C1748.23 71.22 1748.47 71.0625 1748.71 70.9C1748.83 70.8192 1748.94 70.7358 1749.06 70.6525C1749.28 70.4917 1749.5 70.3283 1749.72 70.1608C1749.84 70.0725 1749.95 69.9825 1750.06 69.8917C1750.28 69.72 1750.49 69.5442 1750.7 69.365C1750.81 69.2733 1750.92 69.1808 1751.02 69.0875C1751.23 68.8983 1751.44 68.7042 1751.65 68.5075C1751.74 68.4183 1751.84 68.33 1751.93 68.24C1752.15 68.02 1752.37 67.795 1752.59 67.5667C1752.65 67.4933 1752.73 67.4225 1752.79 67.3492C1753.07 67.045 1753.35 66.735 1753.61 66.4175C1753.61 66.4175 1753.61 66.4167 1753.61 66.4167C1752 59.835 1746.98 54.6042 1740.53 52.6617Z" fill="#E8ECF4"/>
<path d="M1735 26C1721.22 26 1710 37.215 1710 51C1710 57.0375 1712.15 62.5817 1715.73 66.9067C1715.74 66.9192 1715.74 66.935 1715.75 66.9467C1718.33 70.0608 1721.57 72.4483 1725.19 73.9908C1725.23 74.0083 1725.27 74.0275 1725.31 74.045C1725.6 74.1683 1725.9 74.2825 1726.2 74.3942C1726.31 74.4383 1726.43 74.4833 1726.55 74.5258C1726.8 74.6175 1727.06 74.7042 1727.32 74.7875C1727.49 74.8408 1727.65 74.8933 1727.82 74.9433C1728.05 75.0117 1728.28 75.0775 1728.51 75.14C1728.72 75.195 1728.92 75.2458 1729.12 75.295C1729.33 75.345 1729.54 75.395 1729.75 75.4392C1729.98 75.4892 1730.22 75.5333 1730.46 75.5767C1730.65 75.6117 1730.83 75.6483 1731.03 75.6792C1731.29 75.7217 1731.55 75.755 1731.82 75.7892C1731.99 75.8108 1732.16 75.8358 1732.33 75.8542C1732.63 75.8858 1732.93 75.9083 1733.24 75.9292C1733.38 75.9392 1733.52 75.9542 1733.66 75.9617C1734.1 75.9867 1734.55 76 1735 76C1735.45 76 1735.9 75.9867 1736.34 75.9633C1736.48 75.9558 1736.62 75.9408 1736.76 75.9308C1737.07 75.9092 1737.37 75.8875 1737.67 75.8558C1737.84 75.8375 1738.01 75.8125 1738.18 75.7908C1738.45 75.7567 1738.71 75.7233 1738.98 75.6808C1739.17 75.65 1739.36 75.6133 1739.55 75.5783C1739.78 75.535 1740.02 75.4908 1740.25 75.4408C1740.46 75.3958 1740.67 75.3467 1740.88 75.2967C1741.08 75.2467 1741.29 75.1958 1741.49 75.1417C1741.72 75.08 1741.95 75.0133 1742.18 74.945C1742.35 74.895 1742.51 74.8425 1742.68 74.7892C1742.94 74.7058 1743.2 74.6192 1743.45 74.5275C1743.57 74.485 1743.69 74.44 1743.8 74.3958C1744.1 74.2842 1744.4 74.1692 1744.69 74.0467C1744.73 74.0292 1744.77 74.01 1744.81 73.9925C1748.43 72.45 1751.67 70.0625 1754.25 66.9483C1754.26 66.9367 1754.26 66.92 1754.27 66.9083C1757.85 62.5817 1760 57.0375 1760 51C1760 37.215 1748.78 26 1735 26ZM1739.99 52.0142C1739.66 52.2275 1739.32 52.4183 1738.97 52.585C1738.92 52.605 1738.88 52.6258 1738.84 52.645C1736.43 53.7425 1733.57 53.7425 1731.16 52.645C1731.12 52.6258 1731.07 52.605 1731.03 52.585C1730.68 52.4183 1730.34 52.2275 1730.01 52.0142C1727.5 50.3775 1725.83 47.5483 1725.83 44.3333C1725.83 39.2792 1729.95 35.1667 1735 35.1667C1740.05 35.1667 1744.17 39.2792 1744.17 44.3333C1744.17 47.5483 1742.5 50.3775 1739.99 52.0142ZM1729.7 53.7742C1729.77 53.8133 1729.84 53.855 1729.91 53.8925C1730.16 54.0242 1730.41 54.1475 1730.67 54.2583C1730.87 54.345 1731.07 54.4183 1731.28 54.4933C1731.32 54.5075 1731.36 54.5233 1731.4 54.5375C1732.53 54.9375 1733.73 55.1667 1735 55.1667C1736.26 55.1667 1737.47 54.9375 1738.6 54.5375C1738.64 54.5233 1738.68 54.5075 1738.72 54.4933C1738.93 54.4183 1739.13 54.345 1739.33 54.2583C1739.59 54.1475 1739.84 54.0242 1740.09 53.8925C1740.16 53.8542 1740.23 53.8133 1740.3 53.7742C1740.41 53.7075 1740.54 53.6442 1740.65 53.5725C1746.52 55.4758 1751.08 60.2575 1752.69 66.1883C1750.61 68.6125 1748.04 70.6092 1745.13 72.0167C1745.12 72.0225 1745.11 72.0292 1745.09 72.035C1744.8 72.1783 1744.49 72.3133 1744.19 72.445C1744.12 72.4742 1744.05 72.5042 1743.98 72.5333C1743.72 72.645 1743.45 72.7508 1743.17 72.8525C1743.06 72.895 1742.95 72.9367 1742.83 72.9767C1742.59 73.0625 1742.35 73.145 1742.11 73.2233C1741.95 73.2717 1741.8 73.3175 1741.65 73.3625C1741.43 73.4275 1741.22 73.49 1741 73.5483C1740.81 73.5975 1740.62 73.6425 1740.44 73.6867C1740.24 73.7333 1740.05 73.7808 1739.85 73.8225C1739.63 73.8683 1739.42 73.9075 1739.2 73.9467C1739.02 73.9792 1738.85 74.0133 1738.67 74.0417C1738.43 74.08 1738.18 74.1108 1737.93 74.1417C1737.78 74.1617 1737.62 74.185 1737.47 74.2017C1737.18 74.2317 1736.9 74.2508 1736.62 74.2708C1736.49 74.2792 1736.37 74.2933 1736.24 74.3C1735.83 74.3217 1735.41 74.3333 1735 74.3333C1734.58 74.3333 1734.17 74.3217 1733.76 74.3C1733.63 74.2933 1733.51 74.28 1733.38 74.2708C1733.1 74.2517 1732.82 74.2317 1732.53 74.2017C1732.38 74.185 1732.22 74.1617 1732.07 74.1417C1731.82 74.1108 1731.57 74.08 1731.33 74.0417C1731.15 74.0133 1730.98 73.9792 1730.8 73.9467C1730.58 73.9075 1730.37 73.8675 1730.15 73.8225C1729.95 73.7808 1729.76 73.7333 1729.56 73.6867C1729.38 73.6417 1729.19 73.5975 1729 73.5483C1728.79 73.49 1728.57 73.4267 1728.35 73.3625C1728.2 73.3175 1728.05 73.2717 1727.89 73.2233C1727.65 73.145 1727.41 73.0625 1727.17 72.9767C1727.05 72.9358 1726.94 72.8942 1726.83 72.8525C1726.55 72.7508 1726.28 72.645 1726.02 72.5333C1725.95 72.505 1725.88 72.475 1725.81 72.4458C1725.51 72.315 1725.2 72.1792 1724.91 72.0358C1724.89 72.03 1724.88 72.0242 1724.87 72.0175C1721.96 70.6108 1719.39 68.6142 1717.31 66.1892C1718.92 60.2575 1723.48 55.4758 1729.35 53.5733C1729.46 53.6442 1729.58 53.7075 1729.7 53.7742ZM1753.94 64.6025C1752.05 59.0242 1747.74 54.5158 1742.23 52.3742C1744.44 50.39 1745.83 47.525 1745.83 44.3333C1745.83 38.36 1740.97 33.5 1735 33.5C1729.03 33.5 1724.17 38.36 1724.17 44.3333C1724.17 47.525 1725.56 50.39 1727.77 52.3742C1722.26 54.5167 1717.95 59.0242 1716.06 64.6025C1713.3 60.77 1711.67 56.0733 1711.67 51C1711.67 38.1342 1722.13 27.6667 1735 27.6667C1747.87 27.6667 1758.33 38.1342 1758.33 51C1758.33 56.0733 1756.7 60.77 1753.94 64.6025Z" fill="#6C8EE4"/>
</g>
<path d="M1703.47 208.534C1703.77 208.825 1704.24 208.821 1704.53 208.526L1709.27 203.717C1709.56 203.422 1709.56 202.947 1709.26 202.656C1708.97 202.366 1708.49 202.369 1708.2 202.664L1703.99 206.939L1699.72 202.729C1699.42 202.439 1698.95 202.442 1698.66 202.737C1698.37 203.032 1698.37 203.507 1698.66 203.798L1703.47 208.534ZM1702.25 77.0057L1703.25 208.006L1704.75 207.994L1703.75 76.9943L1702.25 77.0057Z" fill="#6C8EE4"/>
<path d="M1549.47 242.47C1549.18 242.763 1549.18 243.237 1549.47 243.53L1554.24 248.303C1554.54 248.596 1555.01 248.596 1555.3 248.303C1555.6 248.01 1555.6 247.536 1555.3 247.243L1551.06 243L1555.3 238.757C1555.6 238.464 1555.6 237.99 1555.3 237.697C1555.01 237.404 1554.54 237.404 1554.24 237.697L1549.47 242.47ZM1640 242.25H1550V243.75H1640V242.25Z" fill="#6C8EE4"/>
<rect x="1478.75" y="84.75" width="174.5" height="48.5" rx="14.25" fill="#E8ECF4" stroke="#6C8EE4" stroke-width="1.5"/>
<path d="M1507.92 116.027H1514.37V118H1505.45V103.781H1507.92V116.027ZM1520.69 118.195C1519.19 118.195 1517.96 117.723 1517.03 116.779C1516.1 115.829 1515.63 114.566 1515.63 112.99V112.697C1515.63 111.643 1515.83 110.702 1516.24 109.875C1516.65 109.042 1517.22 108.394 1517.96 107.932C1518.69 107.469 1519.51 107.238 1520.42 107.238C1521.85 107.238 1522.96 107.697 1523.75 108.615C1524.53 109.533 1524.93 110.832 1524.93 112.512V113.469H1518.02C1518.1 114.341 1518.38 115.031 1518.89 115.539C1519.41 116.047 1520.05 116.301 1520.83 116.301C1521.91 116.301 1522.8 115.861 1523.48 114.982L1524.76 116.203C1524.34 116.835 1523.77 117.326 1523.06 117.678C1522.36 118.023 1521.57 118.195 1520.69 118.195ZM1520.41 109.143C1519.76 109.143 1519.23 109.37 1518.82 109.826C1518.43 110.282 1518.17 110.917 1518.06 111.73H1522.58V111.555C1522.53 110.76 1522.32 110.161 1521.95 109.758C1521.58 109.348 1521.06 109.143 1520.41 109.143ZM1533.09 118C1532.99 117.798 1532.9 117.469 1532.82 117.014C1532.06 117.801 1531.14 118.195 1530.04 118.195C1528.98 118.195 1528.12 117.893 1527.45 117.287C1526.78 116.682 1526.44 115.933 1526.44 115.041C1526.44 113.915 1526.86 113.052 1527.69 112.453C1528.53 111.848 1529.73 111.545 1531.29 111.545H1532.74V110.852C1532.74 110.305 1532.59 109.868 1532.28 109.543C1531.98 109.211 1531.51 109.045 1530.88 109.045C1530.34 109.045 1529.9 109.182 1529.56 109.455C1529.21 109.722 1529.04 110.064 1529.04 110.48H1526.67C1526.67 109.901 1526.86 109.361 1527.24 108.859C1527.63 108.352 1528.15 107.954 1528.8 107.668C1529.47 107.382 1530.21 107.238 1531.02 107.238C1532.26 107.238 1533.24 107.551 1533.98 108.176C1534.72 108.794 1535.09 109.667 1535.11 110.793V115.559C1535.11 116.509 1535.25 117.268 1535.51 117.834V118H1533.09ZM1530.48 116.291C1530.95 116.291 1531.39 116.177 1531.8 115.949C1532.22 115.721 1532.53 115.415 1532.74 115.031V113.039H1531.46C1530.58 113.039 1529.92 113.192 1529.48 113.498C1529.04 113.804 1528.81 114.237 1528.81 114.797C1528.81 115.253 1528.96 115.617 1529.26 115.891C1529.57 116.158 1529.98 116.291 1530.48 116.291ZM1537.15 112.639C1537.15 111.011 1537.53 109.706 1538.29 108.723C1539.04 107.733 1540.05 107.238 1541.32 107.238C1542.44 107.238 1543.35 107.629 1544.04 108.41V103H1546.41V118H1544.26L1544.15 116.906C1543.44 117.766 1542.49 118.195 1541.3 118.195C1540.07 118.195 1539.07 117.697 1538.3 116.701C1537.54 115.705 1537.15 114.351 1537.15 112.639ZM1539.53 112.844C1539.53 113.918 1539.73 114.758 1540.14 115.363C1540.56 115.962 1541.15 116.262 1541.91 116.262C1542.88 116.262 1543.59 115.829 1544.04 114.963V110.451C1543.6 109.605 1542.9 109.182 1541.93 109.182C1541.16 109.182 1540.57 109.488 1540.15 110.1C1539.74 110.705 1539.53 111.62 1539.53 112.844ZM1553.54 118.195C1552.04 118.195 1550.82 117.723 1549.88 116.779C1548.95 115.829 1548.48 114.566 1548.48 112.99V112.697C1548.48 111.643 1548.68 110.702 1549.09 109.875C1549.5 109.042 1550.07 108.394 1550.81 107.932C1551.54 107.469 1552.36 107.238 1553.27 107.238C1554.71 107.238 1555.82 107.697 1556.6 108.615C1557.39 109.533 1557.78 110.832 1557.78 112.512V113.469H1550.88C1550.95 114.341 1551.24 115.031 1551.74 115.539C1552.26 116.047 1552.9 116.301 1553.68 116.301C1554.76 116.301 1555.65 115.861 1556.33 114.982L1557.61 116.203C1557.19 116.835 1556.62 117.326 1555.91 117.678C1555.21 118.023 1554.42 118.195 1553.54 118.195ZM1553.26 109.143C1552.61 109.143 1552.08 109.37 1551.68 109.826C1551.28 110.282 1551.02 110.917 1550.91 111.73H1555.44V111.555C1555.38 110.76 1555.17 110.161 1554.8 109.758C1554.43 109.348 1553.92 109.143 1553.26 109.143ZM1565.16 109.602C1564.85 109.549 1564.53 109.523 1564.2 109.523C1563.11 109.523 1562.38 109.94 1562 110.773V118H1559.62V107.434H1561.89L1561.95 108.615C1562.52 107.697 1563.32 107.238 1564.33 107.238C1564.67 107.238 1564.95 107.284 1565.17 107.375L1565.16 109.602ZM1575.93 112.824C1575.93 114.465 1575.57 115.77 1574.83 116.74C1574.1 117.71 1573.1 118.195 1571.81 118.195C1570.58 118.195 1569.61 117.749 1568.92 116.857L1568.8 118H1566.66V103H1569.03V108.449C1569.71 107.642 1570.63 107.238 1571.79 107.238C1573.08 107.238 1574.09 107.717 1574.83 108.674C1575.57 109.631 1575.93 110.969 1575.93 112.688V112.824ZM1573.56 112.619C1573.56 111.473 1573.36 110.614 1572.96 110.041C1572.55 109.468 1571.97 109.182 1571.2 109.182C1570.17 109.182 1569.45 109.631 1569.03 110.529V114.885C1569.45 115.803 1570.18 116.262 1571.22 116.262C1571.96 116.262 1572.53 115.985 1572.94 115.432C1573.34 114.878 1573.55 114.042 1573.56 112.922V112.619ZM1577.49 112.619C1577.49 111.584 1577.69 110.653 1578.1 109.826C1578.51 108.993 1579.09 108.355 1579.83 107.912C1580.57 107.463 1581.43 107.238 1582.39 107.238C1583.81 107.238 1584.97 107.697 1585.86 108.615C1586.75 109.533 1587.23 110.751 1587.3 112.268L1587.31 112.824C1587.31 113.866 1587.11 114.797 1586.71 115.617C1586.31 116.438 1585.74 117.072 1584.99 117.521C1584.24 117.971 1583.38 118.195 1582.41 118.195C1580.92 118.195 1579.72 117.701 1578.82 116.711C1577.93 115.715 1577.49 114.39 1577.49 112.736V112.619ZM1579.86 112.824C1579.86 113.911 1580.08 114.764 1580.53 115.383C1580.98 115.995 1581.61 116.301 1582.41 116.301C1583.21 116.301 1583.83 115.988 1584.27 115.363C1584.72 114.738 1584.95 113.824 1584.95 112.619C1584.95 111.551 1584.72 110.705 1584.25 110.08C1583.8 109.455 1583.18 109.143 1582.39 109.143C1581.61 109.143 1581 109.452 1580.54 110.07C1580.09 110.682 1579.86 111.6 1579.86 112.824ZM1595.63 118C1595.53 117.798 1595.44 117.469 1595.36 117.014C1594.6 117.801 1593.68 118.195 1592.58 118.195C1591.52 118.195 1590.66 117.893 1589.99 117.287C1589.32 116.682 1588.98 115.933 1588.98 115.041C1588.98 113.915 1589.4 113.052 1590.23 112.453C1591.07 111.848 1592.27 111.545 1593.82 111.545H1595.28V110.852C1595.28 110.305 1595.13 109.868 1594.82 109.543C1594.51 109.211 1594.05 109.045 1593.42 109.045C1592.88 109.045 1592.44 109.182 1592.1 109.455C1591.75 109.722 1591.58 110.064 1591.58 110.48H1589.21C1589.21 109.901 1589.4 109.361 1589.78 108.859C1590.17 108.352 1590.69 107.954 1591.34 107.668C1592.01 107.382 1592.75 107.238 1593.56 107.238C1594.8 107.238 1595.78 107.551 1596.52 108.176C1597.26 108.794 1597.63 109.667 1597.65 110.793V115.559C1597.65 116.509 1597.79 117.268 1598.05 117.834V118H1595.63ZM1593.02 116.291C1593.49 116.291 1593.93 116.177 1594.34 115.949C1594.76 115.721 1595.07 115.415 1595.28 115.031V113.039H1594C1593.12 113.039 1592.46 113.192 1592.02 113.498C1591.57 113.804 1591.35 114.237 1591.35 114.797C1591.35 115.253 1591.5 115.617 1591.8 115.891C1592.11 116.158 1592.52 116.291 1593.02 116.291ZM1605.67 109.602C1605.36 109.549 1605.04 109.523 1604.7 109.523C1603.62 109.523 1602.88 109.94 1602.51 110.773V118H1600.13V107.434H1602.4L1602.46 108.615C1603.03 107.697 1603.82 107.238 1604.84 107.238C1605.18 107.238 1605.46 107.284 1605.68 107.375L1605.67 109.602ZM1606.53 112.639C1606.53 111.011 1606.91 109.706 1607.66 108.723C1608.42 107.733 1609.43 107.238 1610.7 107.238C1611.82 107.238 1612.72 107.629 1613.41 108.41V103H1615.79V118H1613.64L1613.52 116.906C1612.81 117.766 1611.86 118.195 1610.68 118.195C1609.44 118.195 1608.44 117.697 1607.67 116.701C1606.91 115.705 1606.53 114.351 1606.53 112.639ZM1608.9 112.844C1608.9 113.918 1609.11 114.758 1609.52 115.363C1609.93 115.962 1610.52 116.262 1611.29 116.262C1612.26 116.262 1612.96 115.829 1613.41 114.963V110.451C1612.98 109.605 1612.27 109.182 1611.3 109.182C1610.54 109.182 1609.94 109.488 1609.53 110.1C1609.11 110.705 1608.9 111.62 1608.9 112.844ZM1624.19 115.129C1624.19 114.706 1624.01 114.383 1623.66 114.162C1623.31 113.941 1622.74 113.745 1621.93 113.576C1621.12 113.407 1620.45 113.192 1619.91 112.932C1618.72 112.359 1618.13 111.529 1618.13 110.441C1618.13 109.53 1618.51 108.768 1619.28 108.156C1620.05 107.544 1621.03 107.238 1622.21 107.238C1623.48 107.238 1624.49 107.551 1625.27 108.176C1626.05 108.801 1626.44 109.611 1626.44 110.607H1624.07C1624.07 110.152 1623.9 109.774 1623.56 109.475C1623.22 109.169 1622.77 109.016 1622.21 109.016C1621.69 109.016 1621.27 109.136 1620.93 109.377C1620.61 109.618 1620.45 109.94 1620.45 110.344C1620.45 110.708 1620.6 110.992 1620.9 111.193C1621.21 111.395 1621.83 111.6 1622.76 111.809C1623.69 112.01 1624.42 112.255 1624.95 112.541C1625.48 112.821 1625.88 113.16 1626.13 113.557C1626.39 113.954 1626.52 114.436 1626.52 115.002C1626.52 115.952 1626.13 116.724 1625.34 117.316C1624.55 117.902 1623.52 118.195 1622.24 118.195C1621.38 118.195 1620.6 118.039 1619.93 117.727C1619.25 117.414 1618.72 116.984 1618.35 116.438C1617.97 115.891 1617.78 115.301 1617.78 114.67H1620.08C1620.12 115.23 1620.33 115.663 1620.72 115.969C1621.11 116.268 1621.63 116.418 1622.27 116.418C1622.9 116.418 1623.37 116.301 1623.7 116.066C1624.02 115.826 1624.19 115.513 1624.19 115.129Z" fill="#6C8EE4"/>
<rect x="1465.75" y="134.75" width="187.5" height="48.5" rx="14.25" fill="#E8ECF4" stroke="#6C8EE4" stroke-width="1.5"/>
<path d="M1498.34 165.154C1497.83 165.825 1497.12 166.333 1496.21 166.678C1495.29 167.023 1494.26 167.195 1493.1 167.195C1491.91 167.195 1490.85 166.925 1489.94 166.385C1489.02 165.844 1488.31 165.073 1487.81 164.07C1487.31 163.061 1487.05 161.886 1487.04 160.545V159.432C1487.04 157.283 1487.55 155.607 1488.58 154.402C1489.61 153.191 1491.04 152.586 1492.88 152.586C1494.47 152.586 1495.72 152.977 1496.65 153.758C1497.59 154.539 1498.15 155.665 1498.33 157.137H1495.91C1495.64 155.424 1494.65 154.568 1492.93 154.568C1491.83 154.568 1490.98 154.969 1490.4 155.77C1489.83 156.564 1489.54 157.732 1489.52 159.275V160.369C1489.52 161.906 1489.84 163.1 1490.48 163.953C1491.13 164.799 1492.04 165.223 1493.19 165.223C1494.45 165.223 1495.35 164.936 1495.88 164.363V161.58H1492.95V159.705H1498.34V165.154ZM1507.14 167C1507.04 166.798 1506.95 166.469 1506.87 166.014C1506.11 166.801 1505.19 167.195 1504.1 167.195C1503.03 167.195 1502.17 166.893 1501.5 166.287C1500.83 165.682 1500.49 164.933 1500.49 164.041C1500.49 162.915 1500.91 162.052 1501.74 161.453C1502.58 160.848 1503.78 160.545 1505.34 160.545H1506.79V159.852C1506.79 159.305 1506.64 158.868 1506.33 158.543C1506.03 158.211 1505.56 158.045 1504.94 158.045C1504.4 158.045 1503.95 158.182 1503.61 158.455C1503.26 158.722 1503.09 159.064 1503.09 159.48H1500.72C1500.72 158.901 1500.91 158.361 1501.29 157.859C1501.68 157.352 1502.2 156.954 1502.86 156.668C1503.52 156.382 1504.26 156.238 1505.07 156.238C1506.31 156.238 1507.3 156.551 1508.03 157.176C1508.77 157.794 1509.14 158.667 1509.16 159.793V164.559C1509.16 165.509 1509.3 166.268 1509.56 166.834V167H1507.14ZM1504.54 165.291C1505 165.291 1505.44 165.177 1505.85 164.949C1506.27 164.721 1506.58 164.415 1506.79 164.031V162.039H1505.51C1504.63 162.039 1503.97 162.192 1503.53 162.498C1503.09 162.804 1502.87 163.237 1502.87 163.797C1502.87 164.253 1503.01 164.617 1503.31 164.891C1503.62 165.158 1504.03 165.291 1504.54 165.291ZM1513.88 156.434L1513.95 157.537C1514.69 156.671 1515.71 156.238 1517 156.238C1518.41 156.238 1519.38 156.779 1519.9 157.859C1520.66 156.779 1521.75 156.238 1523.14 156.238C1524.3 156.238 1525.17 156.561 1525.74 157.205C1526.31 157.85 1526.6 158.8 1526.62 160.057V167H1524.24V160.125C1524.24 159.454 1524.1 158.963 1523.8 158.65C1523.51 158.338 1523.02 158.182 1522.35 158.182C1521.81 158.182 1521.36 158.328 1521.02 158.621C1520.68 158.908 1520.44 159.285 1520.31 159.754L1520.32 167H1517.94V160.047C1517.91 158.803 1517.28 158.182 1516.04 158.182C1515.09 158.182 1514.41 158.569 1514.02 159.344V167H1511.64V156.434H1513.88ZM1533.71 167.195C1532.2 167.195 1530.98 166.723 1530.04 165.779C1529.11 164.829 1528.65 163.566 1528.65 161.99V161.697C1528.65 160.643 1528.85 159.702 1529.25 158.875C1529.66 158.042 1530.24 157.394 1530.97 156.932C1531.71 156.469 1532.53 156.238 1533.43 156.238C1534.87 156.238 1535.98 156.697 1536.76 157.615C1537.55 158.533 1537.94 159.832 1537.94 161.512V162.469H1531.04C1531.11 163.341 1531.4 164.031 1531.91 164.539C1532.42 165.047 1533.07 165.301 1533.84 165.301C1534.93 165.301 1535.81 164.861 1536.5 163.982L1537.78 165.203C1537.35 165.835 1536.79 166.326 1536.08 166.678C1535.38 167.023 1534.58 167.195 1533.71 167.195ZM1533.42 158.143C1532.77 158.143 1532.24 158.37 1531.84 158.826C1531.44 159.282 1531.19 159.917 1531.08 160.73H1535.6V160.555C1535.55 159.76 1535.34 159.161 1534.96 158.758C1534.59 158.348 1534.08 158.143 1533.42 158.143ZM1545 167V152.781H1549.2C1550.46 152.781 1551.57 153.061 1552.54 153.621C1553.52 154.181 1554.27 154.975 1554.81 156.004C1555.34 157.033 1555.61 158.211 1555.61 159.539V160.252C1555.61 161.6 1555.34 162.785 1554.8 163.807C1554.26 164.829 1553.5 165.617 1552.5 166.17C1551.51 166.723 1550.38 167 1549.1 167H1545ZM1547.47 154.773V165.027H1549.09C1550.38 165.027 1551.37 164.624 1552.06 163.816C1552.76 163.003 1553.12 161.837 1553.13 160.32V159.529C1553.13 157.986 1552.79 156.808 1552.12 155.994C1551.45 155.18 1550.48 154.773 1549.2 154.773H1547.47ZM1564.15 167C1564.05 166.798 1563.96 166.469 1563.88 166.014C1563.13 166.801 1562.2 167.195 1561.11 167.195C1560.05 167.195 1559.18 166.893 1558.51 166.287C1557.84 165.682 1557.5 164.933 1557.5 164.041C1557.5 162.915 1557.92 162.052 1558.75 161.453C1559.59 160.848 1560.79 160.545 1562.35 160.545H1563.8V159.852C1563.8 159.305 1563.65 158.868 1563.34 158.543C1563.04 158.211 1562.57 158.045 1561.95 158.045C1561.41 158.045 1560.96 158.182 1560.62 158.455C1560.27 158.722 1560.1 159.064 1560.1 159.48H1557.73C1557.73 158.901 1557.92 158.361 1558.3 157.859C1558.69 157.352 1559.21 156.954 1559.87 156.668C1560.53 156.382 1561.27 156.238 1562.08 156.238C1563.32 156.238 1564.31 156.551 1565.04 157.176C1565.78 157.794 1566.16 158.667 1566.18 159.793V164.559C1566.18 165.509 1566.31 166.268 1566.58 166.834V167H1564.15ZM1561.55 165.291C1562.02 165.291 1562.46 165.177 1562.87 164.949C1563.28 164.721 1563.59 164.415 1563.8 164.031V162.039H1562.52C1561.64 162.039 1560.98 162.192 1560.54 162.498C1560.1 162.804 1559.88 163.237 1559.88 163.797C1559.88 164.253 1560.03 164.617 1560.33 164.891C1560.63 165.158 1561.04 165.291 1561.55 165.291ZM1571.63 153.865V156.434H1573.5V158.191H1571.63V164.09C1571.63 164.493 1571.71 164.786 1571.87 164.969C1572.03 165.145 1572.32 165.232 1572.73 165.232C1573 165.232 1573.28 165.2 1573.56 165.135V166.971C1573.02 167.12 1572.5 167.195 1572 167.195C1570.17 167.195 1569.26 166.189 1569.26 164.178V158.191H1567.52V156.434H1569.26V153.865H1571.63ZM1581.63 167C1581.53 166.798 1581.44 166.469 1581.36 166.014C1580.61 166.801 1579.68 167.195 1578.59 167.195C1577.53 167.195 1576.66 166.893 1575.99 166.287C1575.32 165.682 1574.98 164.933 1574.98 164.041C1574.98 162.915 1575.4 162.052 1576.23 161.453C1577.07 160.848 1578.27 160.545 1579.83 160.545H1581.28V159.852C1581.28 159.305 1581.13 158.868 1580.82 158.543C1580.52 158.211 1580.05 158.045 1579.43 158.045C1578.89 158.045 1578.44 158.182 1578.1 158.455C1577.75 158.722 1577.58 159.064 1577.58 159.48H1575.21C1575.21 158.901 1575.4 158.361 1575.79 157.859C1576.17 157.352 1576.69 156.954 1577.35 156.668C1578.01 156.382 1578.75 156.238 1579.56 156.238C1580.8 156.238 1581.79 156.551 1582.52 157.176C1583.26 157.794 1583.64 158.667 1583.66 159.793V164.559C1583.66 165.509 1583.79 166.268 1584.06 166.834V167H1581.63ZM1579.03 165.291C1579.5 165.291 1579.94 165.177 1580.35 164.949C1580.76 164.721 1581.07 164.415 1581.28 164.031V162.039H1580C1579.12 162.039 1578.46 162.192 1578.02 162.498C1577.58 162.804 1577.36 163.237 1577.36 163.797C1577.36 164.253 1577.51 164.617 1577.81 164.891C1578.11 165.158 1578.52 165.291 1579.03 165.291ZM1595.41 161.824C1595.41 163.465 1595.05 164.77 1594.31 165.74C1593.58 166.71 1592.58 167.195 1591.29 167.195C1590.06 167.195 1589.09 166.749 1588.4 165.857L1588.29 167H1586.14V152H1588.51V157.449C1589.19 156.642 1590.11 156.238 1591.27 156.238C1592.56 156.238 1593.57 156.717 1594.31 157.674C1595.05 158.631 1595.41 159.969 1595.41 161.688V161.824ZM1593.04 161.619C1593.04 160.473 1592.84 159.614 1592.44 159.041C1592.03 158.468 1591.45 158.182 1590.68 158.182C1589.65 158.182 1588.93 158.631 1588.51 159.529V163.885C1588.93 164.803 1589.66 165.262 1590.7 165.262C1591.44 165.262 1592.01 164.985 1592.42 164.432C1592.82 163.878 1593.03 163.042 1593.04 161.922V161.619ZM1603.72 167C1603.62 166.798 1603.53 166.469 1603.45 166.014C1602.7 166.801 1601.77 167.195 1600.68 167.195C1599.62 167.195 1598.75 166.893 1598.08 166.287C1597.41 165.682 1597.07 164.933 1597.07 164.041C1597.07 162.915 1597.49 162.052 1598.32 161.453C1599.16 160.848 1600.36 160.545 1601.92 160.545H1603.37V159.852C1603.37 159.305 1603.22 158.868 1602.91 158.543C1602.61 158.211 1602.14 158.045 1601.52 158.045C1600.98 158.045 1600.53 158.182 1600.19 158.455C1599.84 158.722 1599.67 159.064 1599.67 159.48H1597.3C1597.3 158.901 1597.49 158.361 1597.88 157.859C1598.26 157.352 1598.78 156.954 1599.44 156.668C1600.1 156.382 1600.84 156.238 1601.65 156.238C1602.89 156.238 1603.88 156.551 1604.61 157.176C1605.35 157.794 1605.73 158.667 1605.75 159.793V164.559C1605.75 165.509 1605.88 166.268 1606.15 166.834V167H1603.72ZM1601.12 165.291C1601.59 165.291 1602.03 165.177 1602.44 164.949C1602.85 164.721 1603.16 164.415 1603.37 164.031V162.039H1602.09C1601.21 162.039 1600.55 162.192 1600.11 162.498C1599.67 162.804 1599.45 163.237 1599.45 163.797C1599.45 164.253 1599.6 164.617 1599.9 164.891C1600.2 165.158 1600.61 165.291 1601.12 165.291ZM1614.15 164.129C1614.15 163.706 1613.98 163.383 1613.63 163.162C1613.28 162.941 1612.71 162.745 1611.9 162.576C1611.09 162.407 1610.42 162.192 1609.88 161.932C1608.69 161.359 1608.1 160.529 1608.1 159.441C1608.1 158.53 1608.48 157.768 1609.25 157.156C1610.02 156.544 1611 156.238 1612.18 156.238C1613.44 156.238 1614.46 156.551 1615.24 157.176C1616.02 157.801 1616.41 158.611 1616.41 159.607H1614.04C1614.04 159.152 1613.87 158.774 1613.53 158.475C1613.19 158.169 1612.74 158.016 1612.18 158.016C1611.66 158.016 1611.23 158.136 1610.9 158.377C1610.58 158.618 1610.41 158.94 1610.41 159.344C1610.41 159.708 1610.57 159.992 1610.87 160.193C1611.18 160.395 1611.8 160.6 1612.73 160.809C1613.66 161.01 1614.39 161.255 1614.92 161.541C1615.45 161.821 1615.84 162.16 1616.1 162.557C1616.36 162.954 1616.49 163.436 1616.49 164.002C1616.49 164.952 1616.09 165.724 1615.31 166.316C1614.52 166.902 1613.49 167.195 1612.21 167.195C1611.35 167.195 1610.57 167.039 1609.9 166.727C1609.22 166.414 1608.69 165.984 1608.31 165.438C1607.94 164.891 1607.75 164.301 1607.75 163.67H1610.05C1610.09 164.23 1610.3 164.663 1610.69 164.969C1611.08 165.268 1611.6 165.418 1612.24 165.418C1612.87 165.418 1613.34 165.301 1613.67 165.066C1613.99 164.826 1614.15 164.513 1614.15 164.129ZM1623.22 167.195C1621.71 167.195 1620.49 166.723 1619.55 165.779C1618.62 164.829 1618.16 163.566 1618.16 161.99V161.697C1618.16 160.643 1618.36 159.702 1618.76 158.875C1619.17 158.042 1619.75 157.394 1620.48 156.932C1621.22 156.469 1622.04 156.238 1622.94 156.238C1624.38 156.238 1625.49 156.697 1626.27 157.615C1627.06 158.533 1627.46 159.832 1627.46 161.512V162.469H1620.55C1620.62 163.341 1620.91 164.031 1621.42 164.539C1621.93 165.047 1622.58 165.301 1623.35 165.301C1624.44 165.301 1625.33 164.861 1626.01 163.982L1627.29 165.203C1626.87 165.835 1626.3 166.326 1625.59 166.678C1624.89 167.023 1624.1 167.195 1623.22 167.195ZM1622.93 158.143C1622.28 158.143 1621.76 158.37 1621.35 158.826C1620.95 159.282 1620.7 159.917 1620.59 160.73H1625.11V160.555C1625.06 159.76 1624.85 159.161 1624.48 158.758C1624.11 158.348 1623.59 158.143 1622.93 158.143Z" fill="#6C8EE4"/>
<rect x="1494.75" y="184.75" width="158.5" height="48.5" rx="14.25" fill="#E8ECF4" stroke="#6C8EE4" stroke-width="1.5"/>
<path d="M1528.34 215.154C1527.83 215.825 1527.12 216.333 1526.21 216.678C1525.29 217.023 1524.26 217.195 1523.1 217.195C1521.91 217.195 1520.85 216.925 1519.94 216.385C1519.02 215.844 1518.31 215.073 1517.81 214.07C1517.31 213.061 1517.05 211.886 1517.04 210.545V209.432C1517.04 207.283 1517.55 205.607 1518.58 204.402C1519.61 203.191 1521.04 202.586 1522.88 202.586C1524.47 202.586 1525.72 202.977 1526.65 203.758C1527.59 204.539 1528.15 205.665 1528.33 207.137H1525.91C1525.64 205.424 1524.65 204.568 1522.93 204.568C1521.83 204.568 1520.98 204.969 1520.4 205.77C1519.83 206.564 1519.54 207.732 1519.52 209.275V210.369C1519.52 211.906 1519.84 213.1 1520.48 213.953C1521.13 214.799 1522.04 215.223 1523.19 215.223C1524.45 215.223 1525.35 214.936 1525.88 214.363V211.58H1522.95V209.705H1528.34V215.154ZM1533.35 217H1530.98V206.434H1533.35V217ZM1530.83 203.689C1530.83 203.325 1530.95 203.022 1531.18 202.781C1531.41 202.54 1531.74 202.42 1532.17 202.42C1532.6 202.42 1532.93 202.54 1533.17 202.781C1533.4 203.022 1533.52 203.325 1533.52 203.689C1533.52 204.048 1533.4 204.347 1533.17 204.588C1532.93 204.822 1532.6 204.939 1532.17 204.939C1531.74 204.939 1531.41 204.822 1531.18 204.588C1530.95 204.347 1530.83 204.048 1530.83 203.689ZM1538.92 203.865V206.434H1540.79V208.191H1538.92V214.09C1538.92 214.493 1539 214.786 1539.15 214.969C1539.32 215.145 1539.6 215.232 1540.01 215.232C1540.29 215.232 1540.56 215.2 1540.84 215.135V216.971C1540.3 217.12 1539.78 217.195 1539.28 217.195C1537.46 217.195 1536.55 216.189 1536.55 214.178V208.191H1534.81V206.434H1536.55V203.865H1538.92ZM1554.12 217H1551.66V210.682H1545.31V217H1542.84V202.781H1545.31V208.699H1551.66V202.781H1554.12V217ZM1563.23 215.965C1562.53 216.785 1561.54 217.195 1560.26 217.195C1559.11 217.195 1558.24 216.86 1557.65 216.189C1557.06 215.519 1556.77 214.549 1556.77 213.279V206.434H1559.14V213.25C1559.14 214.591 1559.7 215.262 1560.81 215.262C1561.97 215.262 1562.74 214.848 1563.15 214.021V206.434H1565.52V217H1563.29L1563.23 215.965ZM1577.21 211.824C1577.21 213.465 1576.84 214.77 1576.11 215.74C1575.38 216.71 1574.37 217.195 1573.09 217.195C1571.85 217.195 1570.89 216.749 1570.2 215.857L1570.08 217H1567.93V202H1570.31V207.449C1570.99 206.642 1571.91 206.238 1573.07 206.238C1574.36 206.238 1575.37 206.717 1576.11 207.674C1576.84 208.631 1577.21 209.969 1577.21 211.688V211.824ZM1574.84 211.619C1574.84 210.473 1574.64 209.614 1574.23 209.041C1573.83 208.468 1573.24 208.182 1572.47 208.182C1571.45 208.182 1570.72 208.631 1570.31 209.529V213.885C1570.73 214.803 1571.46 215.262 1572.49 215.262C1573.24 215.262 1573.81 214.985 1574.21 214.432C1574.62 213.878 1574.82 213.042 1574.84 211.922V211.619ZM1586.89 211.717V217H1584.42V202.781H1589.86C1591.45 202.781 1592.71 203.195 1593.64 204.021C1594.57 204.848 1595.04 205.942 1595.04 207.303C1595.04 208.696 1594.58 209.78 1593.67 210.555C1592.75 211.329 1591.48 211.717 1589.83 211.717H1586.89ZM1586.89 209.734H1589.86C1590.74 209.734 1591.41 209.529 1591.87 209.119C1592.33 208.702 1592.56 208.104 1592.56 207.322C1592.56 206.554 1592.33 205.942 1591.86 205.486C1591.39 205.024 1590.75 204.786 1589.93 204.773H1586.89V209.734ZM1603.18 217C1603.07 216.798 1602.98 216.469 1602.9 216.014C1602.15 216.801 1601.22 217.195 1600.13 217.195C1599.07 217.195 1598.2 216.893 1597.53 216.287C1596.86 215.682 1596.53 214.933 1596.53 214.041C1596.53 212.915 1596.94 212.052 1597.78 211.453C1598.62 210.848 1599.82 210.545 1601.37 210.545H1602.83V209.852C1602.83 209.305 1602.67 208.868 1602.37 208.543C1602.06 208.211 1601.6 208.045 1600.97 208.045C1600.43 208.045 1599.99 208.182 1599.64 208.455C1599.3 208.722 1599.12 209.064 1599.12 209.48H1596.75C1596.75 208.901 1596.94 208.361 1597.33 207.859C1597.71 207.352 1598.23 206.954 1598.89 206.668C1599.55 206.382 1600.29 206.238 1601.11 206.238C1602.34 206.238 1603.33 206.551 1604.07 207.176C1604.8 207.794 1605.18 208.667 1605.2 209.793V214.559C1605.2 215.509 1605.33 216.268 1605.6 216.834V217H1603.18ZM1600.57 215.291C1601.04 215.291 1601.48 215.177 1601.89 214.949C1602.31 214.721 1602.62 214.415 1602.83 214.031V212.039H1601.55C1600.67 212.039 1600.01 212.192 1599.56 212.498C1599.12 212.804 1598.9 213.237 1598.9 213.797C1598.9 214.253 1599.05 214.617 1599.35 214.891C1599.66 215.158 1600.06 215.291 1600.57 215.291ZM1607.27 211.639C1607.27 209.998 1607.65 208.689 1608.42 207.713C1609.2 206.73 1610.22 206.238 1611.5 206.238C1612.7 206.238 1613.65 206.658 1614.34 207.498L1614.45 206.434H1616.59V216.678C1616.59 218.064 1616.15 219.158 1615.29 219.959C1614.43 220.76 1613.27 221.16 1611.8 221.16C1611.03 221.16 1610.27 220.997 1609.53 220.672C1608.79 220.353 1608.23 219.933 1607.85 219.412L1608.97 217.986C1609.7 218.852 1610.6 219.285 1611.66 219.285C1612.45 219.285 1613.07 219.07 1613.53 218.641C1613.99 218.217 1614.21 217.592 1614.21 216.766V216.053C1613.53 216.814 1612.62 217.195 1611.48 217.195C1610.24 217.195 1609.23 216.704 1608.44 215.721C1607.66 214.738 1607.27 213.377 1607.27 211.639ZM1609.63 211.844C1609.63 212.905 1609.85 213.742 1610.28 214.354C1610.71 214.959 1611.32 215.262 1612.08 215.262C1613.04 215.262 1613.75 214.852 1614.21 214.031V209.383C1613.76 208.582 1613.06 208.182 1612.1 208.182C1611.32 208.182 1610.71 208.491 1610.28 209.109C1609.85 209.728 1609.63 210.639 1609.63 211.844ZM1623.69 217.195C1622.18 217.195 1620.96 216.723 1620.02 215.779C1619.09 214.829 1618.63 213.566 1618.63 211.99V211.697C1618.63 210.643 1618.83 209.702 1619.23 208.875C1619.64 208.042 1620.22 207.394 1620.95 206.932C1621.69 206.469 1622.51 206.238 1623.41 206.238C1624.85 206.238 1625.96 206.697 1626.74 207.615C1627.53 208.533 1627.92 209.832 1627.92 211.512V212.469H1621.02C1621.09 213.341 1621.38 214.031 1621.89 214.539C1622.4 215.047 1623.05 215.301 1623.82 215.301C1624.91 215.301 1625.79 214.861 1626.48 213.982L1627.76 215.203C1627.33 215.835 1626.77 216.326 1626.06 216.678C1625.36 217.023 1624.56 217.195 1623.69 217.195ZM1623.4 208.143C1622.75 208.143 1622.22 208.37 1621.82 208.826C1621.42 209.282 1621.17 209.917 1621.06 210.73H1625.58V210.555C1625.53 209.76 1625.32 209.161 1624.95 208.758C1624.57 208.348 1624.06 208.143 1623.4 208.143Z" fill="#6C8EE4"/>
<rect x="1640.75" y="26.75" width="52.5" height="215.5" rx="24.25" fill="#E8ECF4" stroke="#6C8EE4" stroke-width="1.5"/>
<g clip-path="url(#clip2)">
<path d="M1669.39 123.484C1668.99 123.484 1668.67 123.747 1668.67 124.07C1668.67 124.394 1668.99 124.656 1669.39 124.656C1669.79 124.656 1670.11 124.394 1670.11 124.07C1670.11 123.747 1669.79 123.484 1669.39 123.484Z" fill="#6C8EE4"/>
<path d="M1670.34 114.315L1670.34 114.315C1672.8 112.974 1674.74 111.119 1675.97 108.934C1679.56 108.13 1681.78 105.294 1681.78 101.453C1681.78 100.41 1680.74 99.5953 1679.51 99.5953H1677.44V98.7578C1677.44 97.7148 1676.4 96.9 1675.17 96.9H1657.83C1656.6 96.9 1655.56 97.7148 1655.56 98.7578V99.5953H1653.49C1652.26 99.5953 1651.22 100.41 1651.22 101.453C1651.22 105.294 1653.44 108.131 1657.03 108.934C1658.26 111.119 1660.2 112.974 1662.66 114.315C1663.2 114.609 1663.51 115.107 1663.51 115.642V118.79C1663.03 118.901 1662.59 119.11 1662.23 119.406C1661.69 119.842 1661.37 120.419 1661.34 121.041H1660.72C1659.49 121.041 1658.45 121.855 1658.45 122.898V126.414C1658.45 126.811 1658.84 127.1 1659.27 127.1H1673.73C1674.16 127.1 1674.55 126.811 1674.55 126.414V122.898C1674.55 121.855 1673.51 121.041 1672.28 121.041H1671.66C1671.6 119.958 1670.69 119.072 1669.49 118.791V115.645C1669.49 115.108 1669.8 114.609 1670.34 114.315ZM1674.64 108.069L1674.73 108.115L1674.64 108.069C1673.55 110.142 1671.75 111.906 1669.44 113.168C1668.45 113.709 1667.85 114.633 1667.85 115.645V119.383C1667.85 119.78 1668.23 120.069 1668.67 120.069C1669.39 120.069 1669.94 120.511 1670.01 121.041H1662.99C1663.02 120.799 1663.15 120.57 1663.37 120.39C1663.61 120.195 1663.93 120.081 1664.27 120.07C1664.29 120.071 1664.31 120.071 1664.33 120.071C1664.77 120.071 1665.15 119.78 1665.15 119.383V115.642C1665.15 114.633 1664.55 113.709 1663.56 113.168L1663.51 113.255L1663.56 113.168C1661.25 111.906 1659.46 110.142 1658.36 108.068L1658.36 108.068C1657.59 106.612 1657.21 105.07 1657.21 103.486V98.7578C1657.21 98.5085 1657.46 98.2719 1657.83 98.2719H1675.17C1675.54 98.2719 1675.79 98.5085 1675.79 98.7578V103.486C1675.79 105.07 1675.41 106.611 1674.64 108.069ZM1652.87 101.453C1652.87 101.204 1653.13 100.967 1653.49 100.967H1655.56V103.486C1655.56 104.757 1655.78 106.003 1656.23 107.206C1654.1 106.256 1652.87 104.208 1652.87 101.453ZM1672.28 122.413C1672.65 122.413 1672.9 122.649 1672.9 122.898V125.728H1660.1V122.898C1660.1 122.649 1660.35 122.413 1660.72 122.413H1672.28ZM1680.13 101.453C1680.13 104.208 1678.9 106.256 1676.77 107.206C1677.22 106.003 1677.44 104.757 1677.44 103.486V100.967H1679.51C1679.87 100.967 1680.13 101.204 1680.13 101.453Z" fill="#6C8EE4" stroke="#6C8EE4" stroke-width="0.2"/>
<path d="M1672.22 103.923C1672.13 103.711 1671.91 103.557 1671.64 103.525L1668.52 103.158L1667.12 100.866C1667 100.666 1666.75 100.539 1666.47 100.539C1666.2 100.539 1665.95 100.666 1665.83 100.866L1664.43 103.158L1661.31 103.525C1661.04 103.557 1660.81 103.711 1660.73 103.923C1660.64 104.136 1660.71 104.368 1660.91 104.524L1663.17 106.308L1662.64 108.827C1662.59 109.046 1662.7 109.268 1662.92 109.4C1663.15 109.531 1663.44 109.548 1663.68 109.444L1666.47 108.255L1669.26 109.444C1669.51 109.549 1669.8 109.53 1670.03 109.4C1670.25 109.268 1670.36 109.046 1670.31 108.826L1669.78 106.308L1672.04 104.524C1672.23 104.368 1672.3 104.136 1672.22 103.923ZM1668.5 105.683C1668.33 105.818 1668.25 106.012 1668.29 106.202L1668.64 107.854L1666.81 107.074C1666.6 106.985 1666.35 106.985 1666.14 107.075L1664.31 107.854L1664.66 106.202C1664.7 106.012 1664.62 105.818 1664.45 105.683L1662.97 104.514L1665.01 104.273C1665.25 104.245 1665.45 104.125 1665.56 103.952L1666.47 102.449L1667.39 103.952C1667.49 104.125 1667.7 104.245 1667.93 104.273L1669.98 104.514L1668.5 105.683Z" fill="#6C8EE4"/>
<path d="M1666.5 123.484H1663.61C1663.21 123.484 1662.89 123.747 1662.89 124.07C1662.89 124.394 1663.21 124.656 1663.61 124.656H1666.5C1666.9 124.656 1667.22 124.394 1667.22 124.07C1667.22 123.747 1666.9 123.484 1666.5 123.484Z" fill="#6C8EE4"/>
<path d="M1677.63 125.242H1678.03C1677.83 125.209 1677.69 125.206 1677.63 125.242Z" fill="#6C8EE4"/>
</g>
<path d="M1666.5 153.75C1673.96 153.75 1680 152.239 1680 150.375C1680 148.511 1673.96 147 1666.5 147C1659.04 147 1653 148.511 1653 150.375C1653 152.239 1659.04 153.75 1666.5 153.75Z" fill="#6C8EE4"/>
<path d="M1666.5 156C1659.04 156 1653 154.489 1653 152.625V157.125C1653 158.989 1659.04 160.5 1666.5 160.5C1673.96 160.5 1680 158.989 1680 157.125V152.625C1680 154.489 1673.96 156 1666.5 156Z" fill="#6C8EE4"/>
<path d="M1666.5 162.75C1659.04 162.75 1653 161.239 1653 159.375V163.875C1653 165.739 1659.04 167.25 1666.5 167.25C1673.96 167.25 1680 165.739 1680 163.875V159.375C1680 161.239 1673.96 162.75 1666.5 162.75Z" fill="#6C8EE4"/>
<path d="M1666.5 169.5C1659.04 169.5 1653 167.989 1653 166.125V170.625C1653 172.489 1659.04 174 1666.5 174C1673.96 174 1680 172.489 1680 170.625V166.125C1680 167.989 1673.96 169.5 1666.5 169.5Z" fill="#6C8EE4"/>
<path d="M1667 195.5C1657.33 195.5 1649.5 203.335 1649.5 213C1649.5 220.776 1654.58 227.36 1661.59 229.639H1672.41C1679.42 227.36 1684.5 220.776 1684.5 213C1684.5 203.335 1676.67 195.5 1667 195.5Z" fill="#6C8EE4"/>
<path opacity="0.05" d="M1672.26 228.747L1672.25 223.673C1672.25 222.852 1672.06 222.049 1671.69 221.322C1676.62 220.331 1679.03 217.413 1679.03 212.417C1679.03 210.444 1678.44 208.702 1677.3 207.237C1677.38 206.96 1677.45 206.673 1677.49 206.379C1677.65 205.181 1677.47 204.398 1677.32 203.768L1677.3 203.666C1677.13 202.97 1676.94 202.473 1676.93 202.452L1676.83 202.205L1676.74 201.958L1676.47 201.93L1676.21 201.902C1676.21 201.902 1676.03 201.884 1675.77 201.884C1675.4 201.884 1674.86 201.921 1674.35 202.095L1674.17 202.153C1673.53 202.371 1672.92 202.577 1672.06 203.088C1671.81 203.238 1671.54 203.408 1671.24 203.599C1669.92 203.271 1668.49 203.104 1667 203.104C1665.49 203.104 1664.06 203.272 1662.72 203.603C1662.43 203.411 1662.15 203.239 1661.9 203.088C1661.04 202.577 1660.43 202.371 1659.78 202.153L1659.61 202.095C1659.1 201.921 1658.56 201.884 1658.19 201.884C1657.92 201.884 1657.75 201.902 1657.75 201.902L1657.49 201.93L1657.22 201.958L1657.13 202.203L1657.03 202.451C1657.02 202.474 1656.82 202.971 1656.66 203.668L1656.64 203.769C1656.49 204.398 1656.3 205.182 1656.47 206.379C1656.51 206.682 1656.58 206.978 1656.67 207.264C1655.54 208.721 1654.97 210.454 1654.97 212.417C1654.97 217.4 1657.38 220.317 1662.32 221.316C1662.15 221.656 1662.02 222.014 1661.93 222.387C1661.75 222.446 1661.6 222.485 1661.46 222.507C1661.25 222.538 1661.03 222.554 1660.81 222.554C1660.21 222.554 1659.74 222.437 1659.55 222.328C1659.28 222.165 1658.79 221.691 1658.32 220.999C1657.91 220.409 1657.28 219.636 1656.57 219.313C1655.96 219.034 1655.32 218.874 1654.8 218.874C1654.68 218.874 1654.57 218.883 1654.47 218.898C1654.02 218.97 1653.64 219.219 1653.43 219.581C1653.26 219.893 1653.23 220.257 1653.36 220.579C1653.55 221.059 1654.1 221.441 1654.53 221.677C1654.74 221.794 1655.2 222.219 1655.47 222.648C1655.67 222.97 1655.76 223.199 1655.89 223.516C1655.97 223.704 1656.05 223.909 1656.16 224.156C1656.57 225.051 1657.86 225.84 1658 225.926C1658.71 226.349 1659.89 226.485 1660.77 226.524L1660.87 226.527H1660.87C1661.08 226.527 1661.37 226.507 1661.75 226.465V228.751C1661.75 229.214 1661.28 229.319 1660.66 229.309L1661.14 229.47C1662.97 230.126 1664.94 230.5 1667 230.5C1669.06 230.5 1671.03 230.126 1672.87 229.471L1673.48 229.242C1672.86 229.221 1672.26 229.119 1672.26 228.747Z" fill="#6C8EE4"/>
<path opacity="0.07" d="M1672.93 229.447C1672.58 229.489 1671.81 229.352 1671.81 228.752V223.673C1671.81 222.716 1671.53 221.791 1670.99 221.003C1676.17 220.165 1678.59 217.421 1678.59 212.417C1678.59 210.46 1677.99 208.748 1676.8 207.323C1676.92 207.004 1677.01 206.667 1677.06 206.319C1677.21 205.203 1677.04 204.494 1676.89 203.869L1676.87 203.767C1676.72 203.101 1676.53 202.632 1676.52 202.613L1676.43 202.366L1676.16 202.338C1676.16 202.338 1676.01 202.322 1675.77 202.322C1675.44 202.322 1674.94 202.354 1674.49 202.51L1674.31 202.567C1673.69 202.778 1673.1 202.977 1672.28 203.463C1671.99 203.637 1671.67 203.841 1671.32 204.071C1669.98 203.72 1668.53 203.541 1667 203.541C1665.46 203.541 1663.99 203.721 1662.64 204.075C1662.29 203.843 1661.97 203.638 1661.67 203.463C1660.86 202.977 1660.27 202.777 1659.64 202.567L1659.47 202.51C1659.01 202.355 1658.52 202.322 1658.19 202.322C1657.95 202.322 1657.8 202.338 1657.8 202.338L1657.53 202.366L1657.43 202.614C1657.42 202.633 1657.24 203.102 1657.08 203.768L1657.06 203.869C1656.91 204.495 1656.75 205.203 1656.9 206.319C1656.95 206.676 1657.04 207.02 1657.16 207.347C1656 208.764 1655.41 210.468 1655.41 212.417C1655.41 217.407 1657.83 220.151 1663.01 220.998C1662.67 221.514 1662.42 222.096 1662.3 222.716C1662.01 222.83 1661.75 222.905 1661.52 222.94C1661.29 222.975 1661.05 222.993 1660.81 222.993C1660.2 222.993 1659.62 222.88 1659.33 222.705C1658.94 222.476 1658.4 221.905 1657.95 221.248C1657.65 220.802 1657.04 220.008 1656.39 219.712C1655.83 219.458 1655.25 219.312 1654.8 219.312C1654.7 219.312 1654.61 219.319 1654.54 219.332C1654.22 219.382 1653.95 219.552 1653.81 219.799C1653.7 219.995 1653.68 220.221 1653.76 220.418C1653.92 220.81 1654.5 221.162 1654.74 221.295C1655.03 221.456 1655.54 221.946 1655.84 222.419C1656.06 222.772 1656.16 223.028 1656.29 223.352C1656.37 223.535 1656.45 223.735 1656.56 223.975C1656.85 224.604 1657.74 225.263 1658.22 225.553C1658.88 225.948 1660.11 226.059 1660.78 226.088L1660.88 226.09C1661.14 226.09 1661.58 226.051 1662.19 225.972V228.752C1662.19 229.433 1661.32 229.461 1661.11 229.461C1661.08 229.461 1661.55 229.622 1661.55 229.622C1663.26 230.185 1665.09 230.5 1667 230.5C1668.91 230.5 1670.74 230.185 1672.45 229.622C1672.45 229.622 1672.96 229.444 1672.93 229.447Z" fill="#6C8EE4"/>
<path d="M1678.15 212.417C1678.15 210.396 1677.47 208.72 1676.3 207.405C1676.43 207.121 1676.56 206.739 1676.62 206.26C1676.77 205.166 1676.6 204.51 1676.45 203.868C1676.3 203.225 1676.12 202.774 1676.12 202.774C1676.12 202.774 1675.31 202.692 1674.63 202.924C1673.94 203.157 1673.36 203.335 1672.51 203.84C1672.11 204.077 1671.71 204.336 1671.4 204.546C1670.05 204.171 1668.56 203.979 1667 203.979C1665.42 203.979 1663.93 204.172 1662.57 204.549C1662.25 204.338 1661.85 204.078 1661.45 203.84C1660.6 203.334 1660.01 203.156 1659.33 202.923C1658.65 202.691 1657.84 202.773 1657.84 202.773C1657.84 202.773 1657.66 203.224 1657.51 203.867C1657.36 204.509 1657.18 205.165 1657.33 206.259C1657.4 206.751 1657.54 207.139 1657.67 207.425C1656.52 208.732 1655.85 210.398 1655.85 212.416C1655.85 217.652 1658.68 220.041 1663.83 220.672C1663.23 221.307 1662.83 222.121 1662.69 223.027C1662.35 223.175 1661.96 223.315 1661.59 223.371C1660.62 223.518 1659.6 223.371 1659.11 223.08C1658.62 222.789 1658.03 222.132 1657.59 221.494C1657.23 220.955 1656.69 220.329 1656.21 220.109C1655.57 219.817 1654.95 219.708 1654.61 219.762C1654.26 219.817 1654.1 220.072 1654.17 220.255C1654.24 220.437 1654.59 220.711 1654.95 220.911C1655.32 221.111 1655.88 221.658 1656.21 222.187C1656.58 222.776 1656.65 223.117 1656.96 223.791C1657.18 224.265 1657.92 224.857 1658.45 225.176C1658.91 225.45 1659.82 225.605 1660.8 225.65C1661.14 225.666 1661.95 225.566 1662.63 225.47V228.751C1662.63 229.31 1662.11 229.735 1661.58 229.637C1663.29 230.21 1665.1 230.5 1667 230.5C1668.9 230.5 1670.71 230.21 1672.42 229.639C1671.89 229.736 1671.38 229.311 1671.38 228.752V223.673C1671.38 222.51 1670.91 221.459 1670.17 220.676C1675.29 220.062 1678.15 217.729 1678.15 212.417ZM1655.83 220.636C1655.7 220.567 1655.63 220.439 1655.67 220.349C1655.72 220.259 1655.86 220.242 1656 220.312C1656.13 220.381 1656.21 220.508 1656.16 220.598C1656.12 220.689 1655.97 220.705 1655.83 220.636ZM1656.89 221.297C1656.82 221.374 1656.67 221.349 1656.55 221.243C1656.44 221.136 1656.4 220.986 1656.47 220.909C1656.54 220.832 1656.69 220.857 1656.81 220.963C1656.93 221.07 1656.97 221.22 1656.89 221.297ZM1657.55 222.39C1657.47 222.453 1657.31 222.395 1657.22 222.259C1657.12 222.124 1657.11 221.962 1657.2 221.899C1657.29 221.836 1657.44 221.894 1657.54 222.03C1657.64 222.166 1657.64 222.327 1657.55 222.39ZM1658.5 223.214C1658.44 223.312 1658.27 223.316 1658.12 223.224C1657.97 223.133 1657.9 222.979 1657.96 222.881C1658.02 222.783 1658.19 222.778 1658.34 222.87C1658.49 222.962 1658.56 223.116 1658.5 223.214ZM1659.4 224.02C1659.21 223.997 1659.07 223.881 1659.09 223.76C1659.1 223.639 1659.27 223.56 1659.45 223.583C1659.64 223.606 1659.78 223.722 1659.76 223.843C1659.75 223.963 1659.58 224.043 1659.4 224.02ZM1660.84 224.229C1660.64 224.218 1660.49 224.104 1660.5 223.976C1660.5 223.848 1660.67 223.753 1660.87 223.764C1661.07 223.776 1661.22 223.889 1661.22 224.017C1661.21 224.146 1661.04 224.24 1660.84 224.229ZM1662.21 224.092C1661.99 224.092 1661.82 223.982 1661.82 223.847C1661.82 223.711 1661.99 223.601 1662.21 223.601C1662.42 223.601 1662.59 223.711 1662.59 223.847C1662.59 223.982 1662.42 224.092 1662.21 224.092Z" fill="#E8ECF4"/>
<g filter="url(#filter3_d)">
<circle cx="1667" cy="52" r="25" fill="#E8ECF4"/>
<circle cx="1667" cy="52" r="25.75" stroke="#6C8EE4" stroke-width="1.5"/>
</g>
<g clip-path="url(#clip3)">
<rect width="33" height="33" transform="translate(1650 34)" fill="#E8ECF4"/>
<path d="M1666.5 67C1666.86 67 1667.14 66.7114 1667.14 66.3555C1667.14 65.9995 1666.86 65.7109 1666.5 65.7109C1666.14 65.7109 1665.86 65.9995 1665.86 66.3555C1665.86 66.7114 1666.14 67 1666.5 67Z" fill="#6C8EE4"/>
<mask id="path-50-outside-1" maskUnits="userSpaceOnUse" x="1649" y="33" width="35" height="35" fill="black">
<rect fill="white" x="1649" y="33" width="35" height="35"/>
<path d="M1682.36 61.6504H1681.07V58.2344C1681.07 57.8784 1680.78 57.5898 1680.42 57.5898H1678.97C1678.82 57.0805 1678.58 56.1705 1678.31 55.0117H1679.46C1679.81 55.0117 1680.1 54.7232 1680.1 54.3672C1680.1 54.0112 1679.81 53.7227 1679.46 53.7227H1678.04C1677.66 51.875 1677.27 49.3737 1677.21 46.8906H1678.49C1678.77 46.8906 1679.01 46.7131 1679.1 46.4499L1681.03 40.6491C1681.1 40.4526 1681.07 40.2365 1680.94 40.0685C1680.82 39.9004 1680.63 39.8008 1680.42 39.8008H1675.07V37.2227H1676.36C1676.72 37.2227 1677.01 36.9341 1677.01 36.5781C1677.01 36.2222 1676.72 35.9336 1676.36 35.9336H1675.07V34.6445C1675.07 34.2886 1674.78 34 1674.43 34C1674.07 34 1673.78 34.2886 1673.78 34.6445V35.9336H1672.49C1672.14 35.9336 1671.85 36.2222 1671.85 36.5781C1671.85 36.9341 1672.14 37.2227 1672.49 37.2227H1673.78V39.8008H1668.63C1668.42 39.8008 1668.23 39.9004 1668.1 40.0685C1667.98 40.2365 1667.95 40.4526 1668.02 40.6491L1669.95 46.4499C1670.04 46.7131 1670.28 46.89 1670.56 46.89H1671.65C1671.59 49.3731 1671.19 51.8749 1670.82 53.7227H1669.4C1669.04 53.7227 1668.76 54.0112 1668.76 54.3672C1668.76 54.7232 1669.04 55.0111 1669.4 55.0111H1670.54C1670.28 56.1698 1670.03 57.0805 1669.89 57.5898H1668.43C1668.08 57.5898 1667.79 57.8784 1667.79 58.2344V61.6504H1665.21V58.2344C1665.21 57.8784 1664.92 57.5898 1664.57 57.5898H1663.11C1662.97 57.0805 1662.72 56.1705 1662.46 55.0117H1663.6C1663.96 55.0117 1664.24 54.7232 1664.24 54.3672C1664.24 54.0112 1663.96 53.7227 1663.6 53.7227H1662.18C1661.81 51.875 1661.41 49.3737 1661.35 46.8906H1663.6C1663.96 46.8906 1664.24 46.6021 1664.24 46.2461V40.4453C1664.24 40.0893 1663.96 39.8008 1663.6 39.8008H1660.7C1660.34 39.8008 1660.05 40.0893 1660.05 40.4453V41.7344H1657.09V40.4453C1657.09 40.0893 1656.8 39.8008 1656.45 39.8008H1653.54C1653.19 39.8008 1652.9 40.0893 1652.9 40.4453V46.2461C1652.9 46.6021 1653.19 46.8906 1653.54 46.89H1655.79C1655.73 49.3737 1655.34 51.8749 1654.96 53.7227H1653.54C1653.19 53.7227 1652.9 54.0112 1652.9 54.3672C1652.9 54.7232 1653.19 55.0111 1653.54 55.0111H1654.69C1654.42 56.1698 1654.18 57.0805 1654.03 57.5898H1652.58C1652.22 57.5898 1651.93 57.8784 1651.93 58.2344V61.6504H1650.64C1650.29 61.6504 1650 61.9389 1650 62.2949V66.3555C1650 66.7114 1650.29 67 1650.64 67H1663.6C1663.96 67 1664.24 66.7114 1664.24 66.3555C1664.24 65.9995 1663.96 65.7109 1663.6 65.7109H1651.29V62.9395H1681.71V65.7109H1669.4C1669.04 65.7109 1668.76 65.9995 1668.76 66.3555C1668.76 66.7114 1669.04 67 1669.4 67H1682.36C1682.71 67 1683 66.7114 1683 66.3555V62.2949C1683 61.9389 1682.71 61.6504 1682.36 61.6504ZM1669.52 41.0898H1679.53L1678.02 45.6016H1671.03L1669.52 41.0898ZM1672.94 46.8906H1675.92C1675.98 49.3621 1676.35 51.8408 1676.72 53.7227H1672.13C1672.5 51.8408 1672.88 49.3621 1672.94 46.8906ZM1671.86 55.0117H1676.99C1677.23 56.1011 1677.46 56.9914 1677.63 57.5898H1671.23C1671.39 56.9914 1671.62 56.1011 1671.86 55.0117ZM1654.19 41.0898H1655.8V42.3789C1655.8 42.7349 1656.09 43.0234 1656.45 43.0234H1660.7C1661.06 43.0234 1661.34 42.7349 1661.34 42.3789V41.0898H1662.96V45.6016H1654.19V41.0898ZM1657.08 46.8906H1660.06C1660.12 49.3621 1660.5 51.8408 1660.87 53.7227H1656.28C1656.65 51.8408 1657.02 49.3621 1657.08 46.8906ZM1656.01 55.0117H1661.14C1661.38 56.1011 1661.61 56.9914 1661.78 57.5898H1655.37C1655.54 56.9914 1655.77 56.1011 1656.01 55.0117ZM1653.22 58.8789H1663.92V61.6504H1653.22V58.8789ZM1669.08 58.8789H1679.78V61.6504H1669.08V58.8789Z"/>
</mask>
<path d="M1682.36 61.6504H1681.07V58.2344C1681.07 57.8784 1680.78 57.5898 1680.42 57.5898H1678.97C1678.82 57.0805 1678.58 56.1705 1678.31 55.0117H1679.46C1679.81 55.0117 1680.1 54.7232 1680.1 54.3672C1680.1 54.0112 1679.81 53.7227 1679.46 53.7227H1678.04C1677.66 51.875 1677.27 49.3737 1677.21 46.8906H1678.49C1678.77 46.8906 1679.01 46.7131 1679.1 46.4499L1681.03 40.6491C1681.1 40.4526 1681.07 40.2365 1680.94 40.0685C1680.82 39.9004 1680.63 39.8008 1680.42 39.8008H1675.07V37.2227H1676.36C1676.72 37.2227 1677.01 36.9341 1677.01 36.5781C1677.01 36.2222 1676.72 35.9336 1676.36 35.9336H1675.07V34.6445C1675.07 34.2886 1674.78 34 1674.43 34C1674.07 34 1673.78 34.2886 1673.78 34.6445V35.9336H1672.49C1672.14 35.9336 1671.85 36.2222 1671.85 36.5781C1671.85 36.9341 1672.14 37.2227 1672.49 37.2227H1673.78V39.8008H1668.63C1668.42 39.8008 1668.23 39.9004 1668.1 40.0685C1667.98 40.2365 1667.95 40.4526 1668.02 40.6491L1669.95 46.4499C1670.04 46.7131 1670.28 46.89 1670.56 46.89H1671.65C1671.59 49.3731 1671.19 51.8749 1670.82 53.7227H1669.4C1669.04 53.7227 1668.76 54.0112 1668.76 54.3672C1668.76 54.7232 1669.04 55.0111 1669.4 55.0111H1670.54C1670.28 56.1698 1670.03 57.0805 1669.89 57.5898H1668.43C1668.08 57.5898 1667.79 57.8784 1667.79 58.2344V61.6504H1665.21V58.2344C1665.21 57.8784 1664.92 57.5898 1664.57 57.5898H1663.11C1662.97 57.0805 1662.72 56.1705 1662.46 55.0117H1663.6C1663.96 55.0117 1664.24 54.7232 1664.24 54.3672C1664.24 54.0112 1663.96 53.7227 1663.6 53.7227H1662.18C1661.81 51.875 1661.41 49.3737 1661.35 46.8906H1663.6C1663.96 46.8906 1664.24 46.6021 1664.24 46.2461V40.4453C1664.24 40.0893 1663.96 39.8008 1663.6 39.8008H1660.7C1660.34 39.8008 1660.05 40.0893 1660.05 40.4453V41.7344H1657.09V40.4453C1657.09 40.0893 1656.8 39.8008 1656.45 39.8008H1653.54C1653.19 39.8008 1652.9 40.0893 1652.9 40.4453V46.2461C1652.9 46.6021 1653.19 46.8906 1653.54 46.89H1655.79C1655.73 49.3737 1655.34 51.8749 1654.96 53.7227H1653.54C1653.19 53.7227 1652.9 54.0112 1652.9 54.3672C1652.9 54.7232 1653.19 55.0111 1653.54 55.0111H1654.69C1654.42 56.1698 1654.18 57.0805 1654.03 57.5898H1652.58C1652.22 57.5898 1651.93 57.8784 1651.93 58.2344V61.6504H1650.64C1650.29 61.6504 1650 61.9389 1650 62.2949V66.3555C1650 66.7114 1650.29 67 1650.64 67H1663.6C1663.96 67 1664.24 66.7114 1664.24 66.3555C1664.24 65.9995 1663.96 65.7109 1663.6 65.7109H1651.29V62.9395H1681.71V65.7109H1669.4C1669.04 65.7109 1668.76 65.9995 1668.76 66.3555C1668.76 66.7114 1669.04 67 1669.4 67H1682.36C1682.71 67 1683 66.7114 1683 66.3555V62.2949C1683 61.9389 1682.71 61.6504 1682.36 61.6504ZM1669.52 41.0898H1679.53L1678.02 45.6016H1671.03L1669.52 41.0898ZM1672.94 46.8906H1675.92C1675.98 49.3621 1676.35 51.8408 1676.72 53.7227H1672.13C1672.5 51.8408 1672.88 49.3621 1672.94 46.8906ZM1671.86 55.0117H1676.99C1677.23 56.1011 1677.46 56.9914 1677.63 57.5898H1671.23C1671.39 56.9914 1671.62 56.1011 1671.86 55.0117ZM1654.19 41.0898H1655.8V42.3789C1655.8 42.7349 1656.09 43.0234 1656.45 43.0234H1660.7C1661.06 43.0234 1661.34 42.7349 1661.34 42.3789V41.0898H1662.96V45.6016H1654.19V41.0898ZM1657.08 46.8906H1660.06C1660.12 49.3621 1660.5 51.8408 1660.87 53.7227H1656.28C1656.65 51.8408 1657.02 49.3621 1657.08 46.8906ZM1656.01 55.0117H1661.14C1661.38 56.1011 1661.61 56.9914 1661.78 57.5898H1655.37C1655.54 56.9914 1655.77 56.1011 1656.01 55.0117ZM1653.22 58.8789H1663.92V61.6504H1653.22V58.8789ZM1669.08 58.8789H1679.78V61.6504H1669.08V58.8789Z" fill="#6C8EE4"/>
<path d="M1682.36 61.6504H1681.07V58.2344C1681.07 57.8784 1680.78 57.5898 1680.42 57.5898H1678.97C1678.82 57.0805 1678.58 56.1705 1678.31 55.0117H1679.46C1679.81 55.0117 1680.1 54.7232 1680.1 54.3672C1680.1 54.0112 1679.81 53.7227 1679.46 53.7227H1678.04C1677.66 51.875 1677.27 49.3737 1677.21 46.8906H1678.49C1678.77 46.8906 1679.01 46.7131 1679.1 46.4499L1681.03 40.6491C1681.1 40.4526 1681.07 40.2365 1680.94 40.0685C1680.82 39.9004 1680.63 39.8008 1680.42 39.8008H1675.07V37.2227H1676.36C1676.72 37.2227 1677.01 36.9341 1677.01 36.5781C1677.01 36.2222 1676.72 35.9336 1676.36 35.9336H1675.07V34.6445C1675.07 34.2886 1674.78 34 1674.43 34C1674.07 34 1673.78 34.2886 1673.78 34.6445V35.9336H1672.49C1672.14 35.9336 1671.85 36.2222 1671.85 36.5781C1671.85 36.9341 1672.14 37.2227 1672.49 37.2227H1673.78V39.8008H1668.63C1668.42 39.8008 1668.23 39.9004 1668.1 40.0685C1667.98 40.2365 1667.95 40.4526 1668.02 40.6491L1669.95 46.4499C1670.04 46.7131 1670.28 46.89 1670.56 46.89H1671.65C1671.59 49.3731 1671.19 51.8749 1670.82 53.7227H1669.4C1669.04 53.7227 1668.76 54.0112 1668.76 54.3672C1668.76 54.7232 1669.04 55.0111 1669.4 55.0111H1670.54C1670.28 56.1698 1670.03 57.0805 1669.89 57.5898H1668.43C1668.08 57.5898 1667.79 57.8784 1667.79 58.2344V61.6504H1665.21V58.2344C1665.21 57.8784 1664.92 57.5898 1664.57 57.5898H1663.11C1662.97 57.0805 1662.72 56.1705 1662.46 55.0117H1663.6C1663.96 55.0117 1664.24 54.7232 1664.24 54.3672C1664.24 54.0112 1663.96 53.7227 1663.6 53.7227H1662.18C1661.81 51.875 1661.41 49.3737 1661.35 46.8906H1663.6C1663.96 46.8906 1664.24 46.6021 1664.24 46.2461V40.4453C1664.24 40.0893 1663.96 39.8008 1663.6 39.8008H1660.7C1660.34 39.8008 1660.05 40.0893 1660.05 40.4453V41.7344H1657.09V40.4453C1657.09 40.0893 1656.8 39.8008 1656.45 39.8008H1653.54C1653.19 39.8008 1652.9 40.0893 1652.9 40.4453V46.2461C1652.9 46.6021 1653.19 46.8906 1653.54 46.89H1655.79C1655.73 49.3737 1655.34 51.8749 1654.96 53.7227H1653.54C1653.19 53.7227 1652.9 54.0112 1652.9 54.3672C1652.9 54.7232 1653.19 55.0111 1653.54 55.0111H1654.69C1654.42 56.1698 1654.18 57.0805 1654.03 57.5898H1652.58C1652.22 57.5898 1651.93 57.8784 1651.93 58.2344V61.6504H1650.64C1650.29 61.6504 1650 61.9389 1650 62.2949V66.3555C1650 66.7114 1650.29 67 1650.64 67H1663.6C1663.96 67 1664.24 66.7114 1664.24 66.3555C1664.24 65.9995 1663.96 65.7109 1663.6 65.7109H1651.29V62.9395H1681.71V65.7109H1669.4C1669.04 65.7109 1668.76 65.9995 1668.76 66.3555C1668.76 66.7114 1669.04 67 1669.4 67H1682.36C1682.71 67 1683 66.7114 1683 66.3555V62.2949C1683 61.9389 1682.71 61.6504 1682.36 61.6504ZM1669.52 41.0898H1679.53L1678.02 45.6016H1671.03L1669.52 41.0898ZM1672.94 46.8906H1675.92C1675.98 49.3621 1676.35 51.8408 1676.72 53.7227H1672.13C1672.5 51.8408 1672.88 49.3621 1672.94 46.8906ZM1671.86 55.0117H1676.99C1677.23 56.1011 1677.46 56.9914 1677.63 57.5898H1671.23C1671.39 56.9914 1671.62 56.1011 1671.86 55.0117ZM1654.19 41.0898H1655.8V42.3789C1655.8 42.7349 1656.09 43.0234 1656.45 43.0234H1660.7C1661.06 43.0234 1661.34 42.7349 1661.34 42.3789V41.0898H1662.96V45.6016H1654.19V41.0898ZM1657.08 46.8906H1660.06C1660.12 49.3621 1660.5 51.8408 1660.87 53.7227H1656.28C1656.65 51.8408 1657.02 49.3621 1657.08 46.8906ZM1656.01 55.0117H1661.14C1661.38 56.1011 1661.61 56.9914 1661.78 57.5898H1655.37C1655.54 56.9914 1655.77 56.1011 1656.01 55.0117ZM1653.22 58.8789H1663.92V61.6504H1653.22V58.8789ZM1669.08 58.8789H1679.78V61.6504H1669.08V58.8789Z" stroke="#6C8EE4" stroke-width="0.5" mask="url(#path-50-outside-1)"/>
</g>
</g>
<defs>
<filter id="filter0_d" x="1842.5" y="24.5" width="61" height="61" filterUnits="userSpaceOnUse" color-interpolation-filters="sRGB">
<feFlood flood-opacity="0" result="BackgroundImageFix"/>
<feColorMatrix in="SourceAlpha" type="matrix" values="0 0 0 0 0 0 0 0 0 0 0 0 0 0 0 0 0 0 127 0"/>
<feOffset dy="4"/>
<feGaussianBlur stdDeviation="2"/>
<feColorMatrix type="matrix" values="0 0 0 0 0 0 0 0 0 0 0 0 0 0 0 0 0 0 0.25 0"/>
<feBlend mode="normal" in2="BackgroundImageFix" result="effect1_dropShadow"/>
<feBlend mode="normal" in="SourceGraphic" in2="effect1_dropShadow" result="shape"/>
</filter>
<filter id="filter1_d" x="1774.5" y="24.5" width="61" height="61" filterUnits="userSpaceOnUse" color-interpolation-filters="sRGB">
<feFlood flood-opacity="0" result="BackgroundImageFix"/>
<feColorMatrix in="SourceAlpha" type="matrix" values="0 0 0 0 0 0 0 0 0 0 0 0 0 0 0 0 0 0 127 0"/>
<feOffset dy="4"/>
<feGaussianBlur stdDeviation="2"/>
<feColorMatrix type="matrix" values="0 0 0 0 0 0 0 0 0 0 0 0 0 0 0 0 0 0 0.25 0"/>
<feBlend mode="normal" in2="BackgroundImageFix" result="effect1_dropShadow"/>
<feBlend mode="normal" in="SourceGraphic" in2="effect1_dropShadow" result="shape"/>
</filter>
<filter id="filter2_d" x="1706" y="26" width="58" height="58" filterUnits="userSpaceOnUse" color-interpolation-filters="sRGB">
<feFlood flood-opacity="0" result="BackgroundImageFix"/>
<feColorMatrix in="SourceAlpha" type="matrix" values="0 0 0 0 0 0 0 0 0 0 0 0 0 0 0 0 0 0 127 0"/>
<feOffset dy="4"/>
<feGaussianBlur stdDeviation="2"/>
<feColorMatrix type="matrix" values="0 0 0 0 0 0 0 0 0 0 0 0 0 0 0 0 0 0 0.25 0"/>
<feBlend mode="normal" in2="BackgroundImageFix" result="effect1_dropShadow"/>
<feBlend mode="normal" in="SourceGraphic" in2="effect1_dropShadow" result="shape"/>
</filter>
<filter id="filter3_d" x="1636.5" y="25.5" width="61" height="61" filterUnits="userSpaceOnUse" color-interpolation-filters="sRGB">
<feFlood flood-opacity="0" result="BackgroundImageFix"/>
<feColorMatrix in="SourceAlpha" type="matrix" values="0 0 0 0 0 0 0 0 0 0 0 0 0 0 0 0 0 0 127 0"/>
<feOffset dy="4"/>
<feGaussianBlur stdDeviation="2"/>
<feColorMatrix type="matrix" values="0 0 0 0 0 0 0 0 0 0 0 0 0 0 0 0 0 0 0.25 0"/>
<feBlend mode="normal" in2="BackgroundImageFix" result="effect1_dropShadow"/>
<feBlend mode="normal" in="SourceGraphic" in2="effect1_dropShadow" result="shape"/>
</filter>
<clipPath id="clip0">
<rect width="1920" height="1080" fill="white"/>
</clipPath>
<clipPath id="clip1">
<rect width="35.5858" height="35.5858" fill="white" transform="translate(1791.02 30) rotate(9.73161)"/>
</clipPath>
<clipPath id="clip2">
<rect width="37" height="30" fill="white" transform="translate(1648 97)"/>
</clipPath>
<clipPath id="clip3">
<rect width="33" height="33" fill="white" transform="translate(1650 34)"/>
</clipPath>
</defs>
</svg>
