<svg width="1920" height="1080" viewBox="0 0 1920 1080" fill="none" xmlns="http://www.w3.org/2000/svg">
<rect width="1920" height="1080" fill="#E8ECF4"/>
<g filter="url(#filter0_d)">
<circle cx="1873" cy="51" r="25" fill="#E8ECF4"/>
<circle cx="1873" cy="51" r="25.75" stroke="#6C8EE4" stroke-width="1.5"/>
</g>
<path d="M1870.77 73.2375L1869.45 67.9488L1869.11 67.8595C1866.23 67.0864 1863.6 65.573 1861.51 63.4838L1861.26 63.2394L1856.04 64.7328L1853.31 60.0035L1857.23 56.2141L1857.14 55.8804C1856.75 54.4081 1856.55 52.9335 1856.55 51.5C1856.55 50.0665 1856.75 48.5919 1857.14 47.1184L1857.23 46.7847L1853.31 42.9953L1856.04 38.266L1861.26 39.7594L1861.51 39.515C1863.6 37.4247 1866.23 35.9124 1869.11 35.1393L1869.45 35.05L1870.77 29.7625H1876.23L1877.55 35.0512L1877.88 35.1405C1880.77 35.9124 1883.4 37.4258 1885.49 39.5162L1885.74 39.7606L1890.96 38.2671L1893.69 42.9965L1889.77 46.7859L1889.86 47.1196C1890.25 48.5919 1890.45 50.0653 1890.45 51.5C1890.45 52.9335 1890.25 54.4081 1889.86 55.8816L1889.77 56.2153L1893.69 60.0035L1890.96 64.734L1885.74 63.2394L1885.49 63.4838C1883.4 65.5741 1880.77 67.0864 1877.89 67.8595L1877.55 67.9488L1876.23 73.2375H1870.77ZM1873.5 42.1423C1868.34 42.1423 1864.14 46.3406 1864.14 51.5C1864.14 56.6594 1868.34 60.8577 1873.5 60.8577C1878.66 60.8577 1882.86 56.6594 1882.86 51.5C1882.86 46.3406 1878.66 42.1423 1873.5 42.1423Z" fill="#B6DCFE"/>
<path d="M1875.77 30.35L1876.9 34.8585L1877.07 35.5294L1877.73 35.708C1880.52 36.4541 1883.06 37.9147 1885.08 39.931L1885.56 40.4209L1886.23 40.2306L1890.68 38.9581L1892.95 42.8931L1889.61 46.1232L1889.11 46.6038L1889.29 47.2712C1889.67 48.6941 1889.87 50.117 1889.87 51.5C1889.87 52.883 1889.67 54.3059 1889.29 55.7288L1889.11 56.3962L1889.61 56.8768L1892.95 60.1069L1890.68 64.042L1886.23 62.7694L1885.56 62.5791L1885.08 63.0691C1883.06 65.0854 1880.52 66.5459 1877.73 67.292L1877.07 67.4706L1876.9 68.1415L1875.77 72.65H1871.23L1870.1 68.1415L1869.93 67.4706L1869.27 67.292C1866.48 66.5459 1863.94 65.0854 1861.92 63.0691L1861.44 62.5791L1860.77 62.7694L1856.32 64.042L1854.05 60.1069L1857.39 56.8768L1857.89 56.3962L1857.71 55.7288C1857.33 54.3059 1857.13 52.883 1857.13 51.5C1857.13 50.117 1857.33 48.6941 1857.71 47.2712L1857.89 46.6038L1857.39 46.1232L1854.05 42.8931L1856.32 38.9581L1860.77 40.2306L1861.44 40.4209L1861.92 39.931C1863.94 37.9147 1866.48 36.4541 1869.27 35.708L1869.93 35.5294L1870.1 34.8585L1871.23 30.35H1875.77ZM1873.5 61.4452C1878.98 61.4452 1883.45 56.9837 1883.45 51.5C1883.45 46.0163 1878.98 41.5548 1873.5 41.5548C1868.02 41.5548 1863.55 46.0163 1863.55 51.5C1863.55 56.9837 1868.02 61.4452 1873.5 61.4452ZM1876.69 29.175H1870.31L1868.96 34.573C1865.94 35.3814 1863.24 36.9547 1861.09 39.1002L1855.76 37.5751L1852.57 43.0988L1856.57 46.9669C1856.19 48.4156 1855.96 49.9302 1855.96 51.5C1855.96 53.0698 1856.18 54.5844 1856.57 56.032L1852.57 59.9001L1855.76 65.4238L1861.09 63.8986C1863.24 66.0442 1865.94 67.6175 1868.96 68.4259L1870.31 73.825H1876.69L1878.04 68.4271C1881.06 67.6187 1883.76 66.0453 1885.91 63.8998L1891.24 65.4249L1894.43 59.9013L1890.43 56.0332C1890.81 54.5856 1891.04 53.071 1891.04 51.5012C1891.04 49.9314 1890.82 48.4168 1890.43 46.9692L1894.43 43.1011L1891.24 37.5774L1885.91 39.1026C1883.76 36.957 1881.06 35.3837 1878.04 34.5753L1876.69 29.175ZM1873.5 60.2702C1868.66 60.2702 1864.73 56.3434 1864.73 51.5C1864.73 46.6567 1868.66 42.7298 1873.5 42.7298C1878.34 42.7298 1882.27 46.6567 1882.27 51.5C1882.27 56.3434 1878.34 60.2702 1873.5 60.2702Z" fill="#4788C7"/>
<path d="M1873.5 63.8375C1866.7 63.8375 1861.16 58.3032 1861.16 51.5C1861.16 44.6967 1866.7 39.1625 1873.5 39.1625C1880.3 39.1625 1885.84 44.6967 1885.84 51.5C1885.84 58.3032 1880.3 63.8375 1873.5 63.8375ZM1873.5 46.2125C1870.58 46.2125 1868.21 48.5848 1868.21 51.5C1868.21 54.4152 1870.58 56.7875 1873.5 56.7875C1876.42 56.7875 1878.79 54.4152 1878.79 51.5C1878.79 48.5848 1876.42 46.2125 1873.5 46.2125Z" fill="#DFF0FE"/>
<path d="M1873.5 39.75C1879.98 39.75 1885.25 45.021 1885.25 51.5C1885.25 57.9789 1879.98 63.25 1873.5 63.25C1867.02 63.25 1861.75 57.9789 1861.75 51.5C1861.75 45.021 1867.02 39.75 1873.5 39.75ZM1873.5 57.375C1876.74 57.375 1879.38 54.7395 1879.38 51.5C1879.38 48.2605 1876.74 45.625 1873.5 45.625C1870.26 45.625 1867.63 48.2605 1867.63 51.5C1867.63 54.7395 1870.26 57.375 1873.5 57.375ZM1873.5 38.575C1866.36 38.575 1860.58 44.3619 1860.58 51.5C1860.58 58.6381 1866.36 64.425 1873.5 64.425C1880.64 64.425 1886.43 58.6381 1886.43 51.5C1886.43 44.3619 1880.64 38.575 1873.5 38.575ZM1873.5 56.2C1870.9 56.2 1868.8 54.0956 1868.8 51.5C1868.8 48.9044 1870.9 46.8 1873.5 46.8C1876.1 46.8 1878.2 48.9044 1878.2 51.5C1878.2 54.0956 1876.1 56.2 1873.5 56.2Z" fill="#4788C7"/>
<g filter="url(#filter1_d)">
<circle cx="1805" cy="51" r="25" fill="#E8ECF4"/>
<circle cx="1805" cy="51" r="25.75" stroke="#6C8EE4" stroke-width="1.5"/>
</g>
<g clip-path="url(#clip0)">
<path d="M1819.6 58.9725C1819.93 58.4774 1820.23 57.9646 1820.5 57.4364C1819.29 58.4832 1817.92 59.3311 1816.44 59.9486C1817.53 59.7394 1818.59 59.4121 1819.6 58.9725Z" fill="#D4E1F4"/>
<path d="M1806.05 65.1926C1801.73 64.4522 1797.96 62.1021 1795.42 58.575C1793.19 55.4717 1792.12 51.6813 1792.4 47.8687C1792.68 44.0561 1794.3 40.4646 1796.96 37.724C1797.84 36.8285 1798.81 36.0351 1799.86 35.3593C1800.21 35.0111 1800.59 34.6803 1800.97 34.367C1798.32 35.1732 1795.92 36.6378 1793.99 38.6241C1791.32 41.3647 1789.71 44.9562 1789.42 48.7689C1789.14 52.5815 1790.21 56.3718 1792.44 59.4751C1794.98 63.0022 1798.75 65.3524 1803.07 66.0927C1806.13 66.6146 1809.27 66.2702 1812.14 65.0985C1810.13 65.5055 1808.06 65.5374 1806.05 65.1926Z" fill="#D4E1F4"/>
<path d="M1821.65 55.7805C1821.54 55.7086 1821.41 55.6775 1821.28 55.6927C1821.15 55.7079 1821.03 55.7684 1820.94 55.8635C1819.3 57.5785 1817.26 58.8596 1815.01 59.592C1812.75 60.3244 1810.35 60.4852 1808.01 60.0599C1804.24 59.3812 1800.97 57.2961 1798.79 54.1888C1797.69 52.6354 1796.93 50.8783 1796.53 49.022C1796.13 47.1657 1796.11 45.2482 1796.46 43.3835C1796.82 41.5189 1797.55 39.7452 1798.61 38.1679C1799.67 36.5907 1801.03 35.2422 1802.62 34.2026C1802.73 34.1314 1802.81 34.0244 1802.84 33.9001C1802.88 33.7759 1802.88 33.6422 1802.83 33.5223C1802.78 33.4023 1802.69 33.3037 1802.57 33.2435C1802.45 33.1832 1802.32 33.1651 1802.2 33.1924C1798.84 33.8988 1795.78 35.587 1793.39 38.042C1790.59 40.923 1788.89 44.6986 1788.59 48.7068C1788.3 52.7149 1789.42 56.6997 1791.77 59.9622C1794.43 63.668 1798.4 66.1372 1802.93 66.9147C1806.85 67.5853 1810.87 66.895 1814.34 64.9585C1817.74 63.0562 1820.39 60.0589 1821.86 56.4558C1821.91 56.3361 1821.92 56.2027 1821.88 56.0792C1821.84 55.9556 1821.76 55.8498 1821.65 55.7805ZM1813.94 64.2312C1810.63 66.0743 1806.8 66.7312 1803.07 66.0927C1798.75 65.3523 1794.98 63.0022 1792.44 59.4751C1790.21 56.3718 1789.14 52.5814 1789.42 48.7688C1789.71 44.9562 1791.32 41.3647 1793.99 38.6242C1795.92 36.6378 1798.32 35.1732 1800.98 34.367C1798.01 36.7548 1796.06 40.1806 1795.53 43.9502C1795 47.7198 1795.92 51.5511 1798.1 54.6676C1800.41 57.9561 1803.88 60.1626 1807.87 60.8806C1807.91 60.8878 1807.95 60.8955 1807.99 60.9028C1810.2 61.2866 1812.47 61.1748 1814.64 60.5753C1816.8 59.9759 1818.8 58.9038 1820.5 57.4364C1819.02 60.2952 1816.74 62.6578 1813.94 64.2309L1813.94 64.2312Z" fill="#6C8EE4"/>
</g>
<g filter="url(#filter2_d)">
<path d="M1735 26.8333C1721.65 26.8333 1710.83 37.6533 1710.83 51C1710.83 56.86 1712.92 62.2317 1716.39 66.4158C1718.01 59.835 1723.02 54.605 1729.47 52.6617C1726.78 50.8692 1725 47.81 1725 44.3333C1725 38.8108 1729.48 34.3333 1735 34.3333C1740.52 34.3333 1745 38.8108 1745 44.3333C1745 47.81 1743.22 50.8692 1740.53 52.6617C1746.98 54.605 1751.99 59.835 1753.61 66.4158C1757.08 62.2317 1759.17 56.86 1759.17 51C1759.17 37.6533 1748.35 26.8333 1735 26.8333Z" fill="#E8ECF4"/>
<path d="M1740.53 52.6617C1743.22 50.8692 1745 47.81 1745 44.3333C1745 38.8108 1740.52 34.3333 1735 34.3333C1729.48 34.3333 1725 38.8108 1725 44.3333C1725 47.81 1726.78 50.8692 1729.47 52.6617C1723.02 54.605 1718.01 59.835 1716.39 66.4158C1716.39 66.4158 1716.39 66.4167 1716.39 66.4167C1716.65 66.7342 1716.93 67.0442 1717.21 67.3483C1717.27 67.4225 1717.35 67.4933 1717.41 67.5658C1717.63 67.7942 1717.85 68.0192 1718.07 68.2392C1718.16 68.33 1718.26 68.4175 1718.35 68.5067C1718.56 68.7033 1718.77 68.8975 1718.98 69.0867C1719.09 69.18 1719.19 69.2725 1719.3 69.3642C1719.51 69.5433 1719.72 69.7192 1719.94 69.8908C1720.05 69.9817 1720.16 70.0708 1720.28 70.16C1720.5 70.3284 1720.72 70.4917 1720.94 70.6517C1721.06 70.7342 1721.17 70.8183 1721.29 70.8992C1721.53 71.0625 1721.77 71.2192 1722.01 71.3742C1722.12 71.4433 1722.23 71.515 1722.34 71.5833C1722.62 71.7558 1722.9 71.9208 1723.19 72.0825C1723.26 72.125 1723.34 72.1708 1723.42 72.2125C1723.79 72.4159 1724.16 72.6108 1724.55 72.795C1724.56 72.7992 1724.57 72.8033 1724.58 72.8075C1724.94 72.9825 1725.31 73.1483 1725.69 73.305C1725.81 73.3542 1725.93 73.3975 1726.04 73.4442C1726.31 73.5525 1726.59 73.6592 1726.86 73.7575C1727.01 73.81 1727.16 73.8575 1727.31 73.9075C1727.56 73.9925 1727.81 74.075 1728.07 74.1508C1728.23 74.1992 1728.39 74.2442 1728.55 74.2892C1728.8 74.3575 1729.05 74.4225 1729.3 74.4833C1729.47 74.5242 1729.64 74.5633 1729.81 74.6008C1730.06 74.6558 1730.31 74.7058 1730.56 74.7525C1730.74 74.7842 1730.91 74.8167 1731.08 74.8442C1731.34 74.8867 1731.61 74.9225 1731.87 74.9567C1732.04 74.9784 1732.2 75.0025 1732.37 75.02C1732.66 75.0517 1732.96 75.0742 1733.25 75.095C1733.39 75.105 1733.53 75.12 1733.68 75.1275C1734.11 75.1525 1734.56 75.1667 1735 75.1667C1735.45 75.1667 1735.89 75.1525 1736.33 75.1292C1736.47 75.1217 1736.61 75.1067 1736.75 75.0967C1737.05 75.0759 1737.34 75.0533 1737.63 75.0217C1737.8 75.0033 1737.96 74.98 1738.13 74.9584C1738.4 74.9242 1738.66 74.8884 1738.92 74.8459C1739.09 74.8175 1739.26 74.7859 1739.44 74.7542C1739.69 74.7075 1739.94 74.6575 1740.19 74.6025C1740.36 74.565 1740.53 74.5258 1740.7 74.485C1740.95 74.4242 1741.2 74.3592 1741.45 74.2909C1741.61 74.2458 1741.77 74.2009 1741.94 74.1525C1742.19 74.0759 1742.44 73.9934 1742.7 73.9092C1742.84 73.8592 1742.99 73.8117 1743.14 73.7592C1743.41 73.66 1743.69 73.5542 1743.96 73.4459C1744.08 73.3992 1744.19 73.355 1744.31 73.3067C1744.69 73.15 1745.06 72.9858 1745.42 72.8108C1745.43 72.8058 1745.44 72.8008 1745.45 72.7958C1745.84 72.6117 1746.21 72.4167 1746.59 72.2133C1746.66 72.1717 1746.74 72.1258 1746.81 72.0833C1747.1 71.9217 1747.38 71.7567 1747.66 71.5842C1747.77 71.5167 1747.88 71.445 1747.99 71.375C1748.23 71.22 1748.47 71.0625 1748.71 70.9C1748.83 70.8192 1748.94 70.7358 1749.06 70.6525C1749.28 70.4917 1749.5 70.3283 1749.72 70.1608C1749.84 70.0725 1749.95 69.9825 1750.06 69.8917C1750.28 69.72 1750.49 69.5442 1750.7 69.365C1750.81 69.2733 1750.92 69.1808 1751.02 69.0875C1751.23 68.8983 1751.44 68.7042 1751.65 68.5075C1751.74 68.4183 1751.84 68.33 1751.93 68.24C1752.15 68.02 1752.37 67.795 1752.59 67.5667C1752.65 67.4933 1752.73 67.4225 1752.79 67.3492C1753.07 67.045 1753.35 66.735 1753.61 66.4175C1753.61 66.4175 1753.61 66.4167 1753.61 66.4167C1752 59.835 1746.98 54.6042 1740.53 52.6617Z" fill="#E8ECF4"/>
<path d="M1735 26C1721.22 26 1710 37.215 1710 51C1710 57.0375 1712.15 62.5817 1715.73 66.9067C1715.74 66.9192 1715.74 66.935 1715.75 66.9467C1718.33 70.0608 1721.57 72.4483 1725.19 73.9908C1725.23 74.0083 1725.27 74.0275 1725.31 74.045C1725.6 74.1683 1725.9 74.2825 1726.2 74.3942C1726.31 74.4383 1726.43 74.4833 1726.55 74.5258C1726.8 74.6175 1727.06 74.7042 1727.32 74.7875C1727.49 74.8408 1727.65 74.8933 1727.82 74.9433C1728.05 75.0117 1728.28 75.0775 1728.51 75.14C1728.72 75.195 1728.92 75.2458 1729.12 75.295C1729.33 75.345 1729.54 75.395 1729.75 75.4392C1729.98 75.4892 1730.22 75.5333 1730.46 75.5767C1730.65 75.6117 1730.83 75.6483 1731.03 75.6792C1731.29 75.7217 1731.55 75.755 1731.82 75.7892C1731.99 75.8108 1732.16 75.8358 1732.33 75.8542C1732.63 75.8858 1732.93 75.9083 1733.24 75.9292C1733.38 75.9392 1733.52 75.9542 1733.66 75.9617C1734.1 75.9867 1734.55 76 1735 76C1735.45 76 1735.9 75.9867 1736.34 75.9633C1736.48 75.9558 1736.62 75.9408 1736.76 75.9308C1737.07 75.9092 1737.37 75.8875 1737.67 75.8558C1737.84 75.8375 1738.01 75.8125 1738.18 75.7908C1738.45 75.7567 1738.71 75.7233 1738.98 75.6808C1739.17 75.65 1739.36 75.6133 1739.55 75.5783C1739.78 75.535 1740.02 75.4908 1740.25 75.4408C1740.46 75.3958 1740.67 75.3467 1740.88 75.2967C1741.08 75.2467 1741.29 75.1958 1741.49 75.1417C1741.72 75.08 1741.95 75.0133 1742.18 74.945C1742.35 74.895 1742.51 74.8425 1742.68 74.7892C1742.94 74.7058 1743.2 74.6192 1743.45 74.5275C1743.57 74.485 1743.69 74.44 1743.8 74.3958C1744.1 74.2842 1744.4 74.1692 1744.69 74.0467C1744.73 74.0292 1744.77 74.01 1744.81 73.9925C1748.43 72.45 1751.67 70.0625 1754.25 66.9483C1754.26 66.9367 1754.26 66.92 1754.27 66.9083C1757.85 62.5817 1760 57.0375 1760 51C1760 37.215 1748.78 26 1735 26ZM1739.99 52.0142C1739.66 52.2275 1739.32 52.4183 1738.97 52.585C1738.92 52.605 1738.88 52.6258 1738.84 52.645C1736.43 53.7425 1733.57 53.7425 1731.16 52.645C1731.12 52.6258 1731.07 52.605 1731.03 52.585C1730.68 52.4183 1730.34 52.2275 1730.01 52.0142C1727.5 50.3775 1725.83 47.5483 1725.83 44.3333C1725.83 39.2792 1729.95 35.1667 1735 35.1667C1740.05 35.1667 1744.17 39.2792 1744.17 44.3333C1744.17 47.5483 1742.5 50.3775 1739.99 52.0142ZM1729.7 53.7742C1729.77 53.8133 1729.84 53.855 1729.91 53.8925C1730.16 54.0242 1730.41 54.1475 1730.67 54.2583C1730.87 54.345 1731.07 54.4183 1731.28 54.4933C1731.32 54.5075 1731.36 54.5233 1731.4 54.5375C1732.53 54.9375 1733.73 55.1667 1735 55.1667C1736.26 55.1667 1737.47 54.9375 1738.6 54.5375C1738.64 54.5233 1738.68 54.5075 1738.72 54.4933C1738.93 54.4183 1739.13 54.345 1739.33 54.2583C1739.59 54.1475 1739.84 54.0242 1740.09 53.8925C1740.16 53.8542 1740.23 53.8133 1740.3 53.7742C1740.41 53.7075 1740.54 53.6442 1740.65 53.5725C1746.52 55.4758 1751.08 60.2575 1752.69 66.1883C1750.61 68.6125 1748.04 70.6092 1745.13 72.0167C1745.12 72.0225 1745.11 72.0292 1745.09 72.035C1744.8 72.1783 1744.49 72.3133 1744.19 72.445C1744.12 72.4742 1744.05 72.5042 1743.98 72.5333C1743.72 72.645 1743.45 72.7508 1743.17 72.8525C1743.06 72.895 1742.95 72.9367 1742.83 72.9767C1742.59 73.0625 1742.35 73.145 1742.11 73.2233C1741.95 73.2717 1741.8 73.3175 1741.65 73.3625C1741.43 73.4275 1741.22 73.49 1741 73.5483C1740.81 73.5975 1740.62 73.6425 1740.44 73.6867C1740.24 73.7333 1740.05 73.7808 1739.85 73.8225C1739.63 73.8683 1739.42 73.9075 1739.2 73.9467C1739.02 73.9792 1738.85 74.0133 1738.67 74.0417C1738.43 74.08 1738.18 74.1108 1737.93 74.1417C1737.78 74.1617 1737.62 74.185 1737.47 74.2017C1737.18 74.2317 1736.9 74.2508 1736.62 74.2708C1736.49 74.2792 1736.37 74.2933 1736.24 74.3C1735.83 74.3217 1735.41 74.3333 1735 74.3333C1734.58 74.3333 1734.17 74.3217 1733.76 74.3C1733.63 74.2933 1733.51 74.28 1733.38 74.2708C1733.1 74.2517 1732.82 74.2317 1732.53 74.2017C1732.38 74.185 1732.22 74.1617 1732.07 74.1417C1731.82 74.1108 1731.57 74.08 1731.33 74.0417C1731.15 74.0133 1730.98 73.9792 1730.8 73.9467C1730.58 73.9075 1730.37 73.8675 1730.15 73.8225C1729.95 73.7808 1729.76 73.7333 1729.56 73.6867C1729.38 73.6417 1729.19 73.5975 1729 73.5483C1728.79 73.49 1728.57 73.4267 1728.35 73.3625C1728.2 73.3175 1728.05 73.2717 1727.89 73.2233C1727.65 73.145 1727.41 73.0625 1727.17 72.9767C1727.05 72.9358 1726.94 72.8942 1726.83 72.8525C1726.55 72.7508 1726.28 72.645 1726.02 72.5333C1725.95 72.505 1725.88 72.475 1725.81 72.4458C1725.51 72.315 1725.2 72.1792 1724.91 72.0358C1724.89 72.03 1724.88 72.0242 1724.87 72.0175C1721.96 70.6108 1719.39 68.6142 1717.31 66.1892C1718.92 60.2575 1723.48 55.4758 1729.35 53.5733C1729.46 53.6442 1729.58 53.7075 1729.7 53.7742ZM1753.94 64.6025C1752.05 59.0242 1747.74 54.5158 1742.23 52.3742C1744.44 50.39 1745.83 47.525 1745.83 44.3333C1745.83 38.36 1740.97 33.5 1735 33.5C1729.03 33.5 1724.17 38.36 1724.17 44.3333C1724.17 47.525 1725.56 50.39 1727.77 52.3742C1722.26 54.5167 1717.95 59.0242 1716.06 64.6025C1713.3 60.77 1711.67 56.0733 1711.67 51C1711.67 38.1342 1722.13 27.6667 1735 27.6667C1747.87 27.6667 1758.33 38.1342 1758.33 51C1758.33 56.0733 1756.7 60.77 1753.94 64.6025Z" fill="#6C8EE4"/>
</g>
<g filter="url(#filter3_d)">
<circle cx="1667" cy="52" r="25" fill="#E8ECF4"/>
<circle cx="1667" cy="52" r="25.75" stroke="#6C8EE4" stroke-width="1.5"/>
</g>
<g clip-path="url(#clip1)">
<rect width="33" height="33" transform="translate(1650 34)" fill="#E8ECF4"/>
<path d="M1666.5 67C1666.86 67 1667.14 66.7114 1667.14 66.3555C1667.14 65.9995 1666.86 65.7109 1666.5 65.7109C1666.14 65.7109 1665.86 65.9995 1665.86 66.3555C1665.86 66.7114 1666.14 67 1666.5 67Z" fill="#6C8EE4"/>
<mask id="path-18-outside-1" maskUnits="userSpaceOnUse" x="1649" y="33" width="35" height="35" fill="black">
<rect fill="white" x="1649" y="33" width="35" height="35"/>
<path d="M1682.36 61.6504H1681.07V58.2344C1681.07 57.8784 1680.78 57.5898 1680.42 57.5898H1678.97C1678.82 57.0805 1678.58 56.1705 1678.31 55.0117H1679.46C1679.81 55.0117 1680.1 54.7232 1680.1 54.3672C1680.1 54.0112 1679.81 53.7227 1679.46 53.7227H1678.04C1677.66 51.875 1677.27 49.3737 1677.21 46.8906H1678.49C1678.77 46.8906 1679.01 46.7131 1679.1 46.4499L1681.03 40.6491C1681.1 40.4526 1681.07 40.2365 1680.94 40.0685C1680.82 39.9004 1680.63 39.8008 1680.42 39.8008H1675.07V37.2227H1676.36C1676.72 37.2227 1677.01 36.9341 1677.01 36.5781C1677.01 36.2222 1676.72 35.9336 1676.36 35.9336H1675.07V34.6445C1675.07 34.2886 1674.78 34 1674.43 34C1674.07 34 1673.78 34.2886 1673.78 34.6445V35.9336H1672.49C1672.14 35.9336 1671.85 36.2222 1671.85 36.5781C1671.85 36.9341 1672.14 37.2227 1672.49 37.2227H1673.78V39.8008H1668.63C1668.42 39.8008 1668.23 39.9004 1668.1 40.0685C1667.98 40.2365 1667.95 40.4526 1668.02 40.6491L1669.95 46.4499C1670.04 46.7131 1670.28 46.89 1670.56 46.89H1671.65C1671.59 49.3731 1671.19 51.8749 1670.82 53.7227H1669.4C1669.04 53.7227 1668.76 54.0112 1668.76 54.3672C1668.76 54.7232 1669.04 55.0111 1669.4 55.0111H1670.54C1670.28 56.1698 1670.03 57.0805 1669.89 57.5898H1668.43C1668.08 57.5898 1667.79 57.8784 1667.79 58.2344V61.6504H1665.21V58.2344C1665.21 57.8784 1664.92 57.5898 1664.57 57.5898H1663.11C1662.97 57.0805 1662.72 56.1705 1662.46 55.0117H1663.6C1663.96 55.0117 1664.24 54.7232 1664.24 54.3672C1664.24 54.0112 1663.96 53.7227 1663.6 53.7227H1662.18C1661.81 51.875 1661.41 49.3737 1661.35 46.8906H1663.6C1663.96 46.8906 1664.24 46.6021 1664.24 46.2461V40.4453C1664.24 40.0893 1663.96 39.8008 1663.6 39.8008H1660.7C1660.34 39.8008 1660.05 40.0893 1660.05 40.4453V41.7344H1657.09V40.4453C1657.09 40.0893 1656.8 39.8008 1656.45 39.8008H1653.54C1653.19 39.8008 1652.9 40.0893 1652.9 40.4453V46.2461C1652.9 46.6021 1653.19 46.8906 1653.54 46.89H1655.79C1655.73 49.3737 1655.34 51.8749 1654.96 53.7227H1653.54C1653.19 53.7227 1652.9 54.0112 1652.9 54.3672C1652.9 54.7232 1653.19 55.0111 1653.54 55.0111H1654.69C1654.42 56.1698 1654.18 57.0805 1654.03 57.5898H1652.58C1652.22 57.5898 1651.93 57.8784 1651.93 58.2344V61.6504H1650.64C1650.29 61.6504 1650 61.9389 1650 62.2949V66.3555C1650 66.7114 1650.29 67 1650.64 67H1663.6C1663.96 67 1664.24 66.7114 1664.24 66.3555C1664.24 65.9995 1663.96 65.7109 1663.6 65.7109H1651.29V62.9395H1681.71V65.7109H1669.4C1669.04 65.7109 1668.76 65.9995 1668.76 66.3555C1668.76 66.7114 1669.04 67 1669.4 67H1682.36C1682.71 67 1683 66.7114 1683 66.3555V62.2949C1683 61.9389 1682.71 61.6504 1682.36 61.6504ZM1669.52 41.0898H1679.53L1678.02 45.6016H1671.03L1669.52 41.0898ZM1672.94 46.8906H1675.92C1675.98 49.3621 1676.35 51.8408 1676.72 53.7227H1672.13C1672.5 51.8408 1672.88 49.3621 1672.94 46.8906ZM1671.86 55.0117H1676.99C1677.23 56.1011 1677.46 56.9914 1677.63 57.5898H1671.23C1671.39 56.9914 1671.62 56.1011 1671.86 55.0117ZM1654.19 41.0898H1655.8V42.3789C1655.8 42.7349 1656.09 43.0234 1656.45 43.0234H1660.7C1661.06 43.0234 1661.34 42.7349 1661.34 42.3789V41.0898H1662.96V45.6016H1654.19V41.0898ZM1657.08 46.8906H1660.06C1660.12 49.3621 1660.5 51.8408 1660.87 53.7227H1656.28C1656.65 51.8408 1657.02 49.3621 1657.08 46.8906ZM1656.01 55.0117H1661.14C1661.38 56.1011 1661.61 56.9914 1661.78 57.5898H1655.37C1655.54 56.9914 1655.77 56.1011 1656.01 55.0117ZM1653.22 58.8789H1663.92V61.6504H1653.22V58.8789ZM1669.08 58.8789H1679.78V61.6504H1669.08V58.8789Z"/>
</mask>
<path d="M1682.36 61.6504H1681.07V58.2344C1681.07 57.8784 1680.78 57.5898 1680.42 57.5898H1678.97C1678.82 57.0805 1678.58 56.1705 1678.31 55.0117H1679.46C1679.81 55.0117 1680.1 54.7232 1680.1 54.3672C1680.1 54.0112 1679.81 53.7227 1679.46 53.7227H1678.04C1677.66 51.875 1677.27 49.3737 1677.21 46.8906H1678.49C1678.77 46.8906 1679.01 46.7131 1679.1 46.4499L1681.03 40.6491C1681.1 40.4526 1681.07 40.2365 1680.94 40.0685C1680.82 39.9004 1680.63 39.8008 1680.42 39.8008H1675.07V37.2227H1676.36C1676.72 37.2227 1677.01 36.9341 1677.01 36.5781C1677.01 36.2222 1676.72 35.9336 1676.36 35.9336H1675.07V34.6445C1675.07 34.2886 1674.78 34 1674.43 34C1674.07 34 1673.78 34.2886 1673.78 34.6445V35.9336H1672.49C1672.14 35.9336 1671.85 36.2222 1671.85 36.5781C1671.85 36.9341 1672.14 37.2227 1672.49 37.2227H1673.78V39.8008H1668.63C1668.42 39.8008 1668.23 39.9004 1668.1 40.0685C1667.98 40.2365 1667.95 40.4526 1668.02 40.6491L1669.95 46.4499C1670.04 46.7131 1670.28 46.89 1670.56 46.89H1671.65C1671.59 49.3731 1671.19 51.8749 1670.82 53.7227H1669.4C1669.04 53.7227 1668.76 54.0112 1668.76 54.3672C1668.76 54.7232 1669.04 55.0111 1669.4 55.0111H1670.54C1670.28 56.1698 1670.03 57.0805 1669.89 57.5898H1668.43C1668.08 57.5898 1667.79 57.8784 1667.79 58.2344V61.6504H1665.21V58.2344C1665.21 57.8784 1664.92 57.5898 1664.57 57.5898H1663.11C1662.97 57.0805 1662.72 56.1705 1662.46 55.0117H1663.6C1663.96 55.0117 1664.24 54.7232 1664.24 54.3672C1664.24 54.0112 1663.96 53.7227 1663.6 53.7227H1662.18C1661.81 51.875 1661.41 49.3737 1661.35 46.8906H1663.6C1663.96 46.8906 1664.24 46.6021 1664.24 46.2461V40.4453C1664.24 40.0893 1663.96 39.8008 1663.6 39.8008H1660.7C1660.34 39.8008 1660.05 40.0893 1660.05 40.4453V41.7344H1657.09V40.4453C1657.09 40.0893 1656.8 39.8008 1656.45 39.8008H1653.54C1653.19 39.8008 1652.9 40.0893 1652.9 40.4453V46.2461C1652.9 46.6021 1653.19 46.8906 1653.54 46.89H1655.79C1655.73 49.3737 1655.34 51.8749 1654.96 53.7227H1653.54C1653.19 53.7227 1652.9 54.0112 1652.9 54.3672C1652.9 54.7232 1653.19 55.0111 1653.54 55.0111H1654.69C1654.42 56.1698 1654.18 57.0805 1654.03 57.5898H1652.58C1652.22 57.5898 1651.93 57.8784 1651.93 58.2344V61.6504H1650.64C1650.29 61.6504 1650 61.9389 1650 62.2949V66.3555C1650 66.7114 1650.29 67 1650.64 67H1663.6C1663.96 67 1664.24 66.7114 1664.24 66.3555C1664.24 65.9995 1663.96 65.7109 1663.6 65.7109H1651.29V62.9395H1681.71V65.7109H1669.4C1669.04 65.7109 1668.76 65.9995 1668.76 66.3555C1668.76 66.7114 1669.04 67 1669.4 67H1682.36C1682.71 67 1683 66.7114 1683 66.3555V62.2949C1683 61.9389 1682.71 61.6504 1682.36 61.6504ZM1669.52 41.0898H1679.53L1678.02 45.6016H1671.03L1669.52 41.0898ZM1672.94 46.8906H1675.92C1675.98 49.3621 1676.35 51.8408 1676.72 53.7227H1672.13C1672.5 51.8408 1672.88 49.3621 1672.94 46.8906ZM1671.86 55.0117H1676.99C1677.23 56.1011 1677.46 56.9914 1677.63 57.5898H1671.23C1671.39 56.9914 1671.62 56.1011 1671.86 55.0117ZM1654.19 41.0898H1655.8V42.3789C1655.8 42.7349 1656.09 43.0234 1656.45 43.0234H1660.7C1661.06 43.0234 1661.34 42.7349 1661.34 42.3789V41.0898H1662.96V45.6016H1654.19V41.0898ZM1657.08 46.8906H1660.06C1660.12 49.3621 1660.5 51.8408 1660.87 53.7227H1656.28C1656.65 51.8408 1657.02 49.3621 1657.08 46.8906ZM1656.01 55.0117H1661.14C1661.38 56.1011 1661.61 56.9914 1661.78 57.5898H1655.37C1655.54 56.9914 1655.77 56.1011 1656.01 55.0117ZM1653.22 58.8789H1663.92V61.6504H1653.22V58.8789ZM1669.08 58.8789H1679.78V61.6504H1669.08V58.8789Z" fill="#6C8EE4"/>
<path d="M1682.36 61.6504H1681.07V58.2344C1681.07 57.8784 1680.78 57.5898 1680.42 57.5898H1678.97C1678.82 57.0805 1678.58 56.1705 1678.31 55.0117H1679.46C1679.81 55.0117 1680.1 54.7232 1680.1 54.3672C1680.1 54.0112 1679.81 53.7227 1679.46 53.7227H1678.04C1677.66 51.875 1677.27 49.3737 1677.21 46.8906H1678.49C1678.77 46.8906 1679.01 46.7131 1679.1 46.4499L1681.03 40.6491C1681.1 40.4526 1681.07 40.2365 1680.94 40.0685C1680.82 39.9004 1680.63 39.8008 1680.42 39.8008H1675.07V37.2227H1676.36C1676.72 37.2227 1677.01 36.9341 1677.01 36.5781C1677.01 36.2222 1676.72 35.9336 1676.36 35.9336H1675.07V34.6445C1675.07 34.2886 1674.78 34 1674.43 34C1674.07 34 1673.78 34.2886 1673.78 34.6445V35.9336H1672.49C1672.14 35.9336 1671.85 36.2222 1671.85 36.5781C1671.85 36.9341 1672.14 37.2227 1672.49 37.2227H1673.78V39.8008H1668.63C1668.42 39.8008 1668.23 39.9004 1668.1 40.0685C1667.98 40.2365 1667.95 40.4526 1668.02 40.6491L1669.95 46.4499C1670.04 46.7131 1670.28 46.89 1670.56 46.89H1671.65C1671.59 49.3731 1671.19 51.8749 1670.82 53.7227H1669.4C1669.04 53.7227 1668.76 54.0112 1668.76 54.3672C1668.76 54.7232 1669.04 55.0111 1669.4 55.0111H1670.54C1670.28 56.1698 1670.03 57.0805 1669.89 57.5898H1668.43C1668.08 57.5898 1667.79 57.8784 1667.79 58.2344V61.6504H1665.21V58.2344C1665.21 57.8784 1664.92 57.5898 1664.57 57.5898H1663.11C1662.97 57.0805 1662.72 56.1705 1662.46 55.0117H1663.6C1663.96 55.0117 1664.24 54.7232 1664.24 54.3672C1664.24 54.0112 1663.96 53.7227 1663.6 53.7227H1662.18C1661.81 51.875 1661.41 49.3737 1661.35 46.8906H1663.6C1663.96 46.8906 1664.24 46.6021 1664.24 46.2461V40.4453C1664.24 40.0893 1663.96 39.8008 1663.6 39.8008H1660.7C1660.34 39.8008 1660.05 40.0893 1660.05 40.4453V41.7344H1657.09V40.4453C1657.09 40.0893 1656.8 39.8008 1656.45 39.8008H1653.54C1653.19 39.8008 1652.9 40.0893 1652.9 40.4453V46.2461C1652.9 46.6021 1653.19 46.8906 1653.54 46.89H1655.79C1655.73 49.3737 1655.34 51.8749 1654.96 53.7227H1653.54C1653.19 53.7227 1652.9 54.0112 1652.9 54.3672C1652.9 54.7232 1653.19 55.0111 1653.54 55.0111H1654.69C1654.42 56.1698 1654.18 57.0805 1654.03 57.5898H1652.58C1652.22 57.5898 1651.93 57.8784 1651.93 58.2344V61.6504H1650.64C1650.29 61.6504 1650 61.9389 1650 62.2949V66.3555C1650 66.7114 1650.29 67 1650.64 67H1663.6C1663.96 67 1664.24 66.7114 1664.24 66.3555C1664.24 65.9995 1663.96 65.7109 1663.6 65.7109H1651.29V62.9395H1681.71V65.7109H1669.4C1669.04 65.7109 1668.76 65.9995 1668.76 66.3555C1668.76 66.7114 1669.04 67 1669.4 67H1682.36C1682.71 67 1683 66.7114 1683 66.3555V62.2949C1683 61.9389 1682.71 61.6504 1682.36 61.6504ZM1669.52 41.0898H1679.53L1678.02 45.6016H1671.03L1669.52 41.0898ZM1672.94 46.8906H1675.92C1675.98 49.3621 1676.35 51.8408 1676.72 53.7227H1672.13C1672.5 51.8408 1672.88 49.3621 1672.94 46.8906ZM1671.86 55.0117H1676.99C1677.23 56.1011 1677.46 56.9914 1677.63 57.5898H1671.23C1671.39 56.9914 1671.62 56.1011 1671.86 55.0117ZM1654.19 41.0898H1655.8V42.3789C1655.8 42.7349 1656.09 43.0234 1656.45 43.0234H1660.7C1661.06 43.0234 1661.34 42.7349 1661.34 42.3789V41.0898H1662.96V45.6016H1654.19V41.0898ZM1657.08 46.8906H1660.06C1660.12 49.3621 1660.5 51.8408 1660.87 53.7227H1656.28C1656.65 51.8408 1657.02 49.3621 1657.08 46.8906ZM1656.01 55.0117H1661.14C1661.38 56.1011 1661.61 56.9914 1661.78 57.5898H1655.37C1655.54 56.9914 1655.77 56.1011 1656.01 55.0117ZM1653.22 58.8789H1663.92V61.6504H1653.22V58.8789ZM1669.08 58.8789H1679.78V61.6504H1669.08V58.8789Z" stroke="#6C8EE4" stroke-width="0.5" mask="url(#path-18-outside-1)"/>
</g>
<path d="M117.457 59.3975C117.044 62.9316 115.736 65.6626 113.533 67.5903C111.345 69.5028 108.43 70.459 104.789 70.459C100.842 70.459 97.6748 69.0438 95.2881 66.2134C92.9167 63.383 91.731 59.5964 91.731 54.8535V51.6406C91.731 48.5348 92.2817 45.8039 93.3833 43.4478C94.5002 41.0916 96.076 39.2863 98.1108 38.0317C100.146 36.7619 102.502 36.127 105.179 36.127C108.729 36.127 111.574 37.1214 113.716 39.1104C115.858 41.084 117.105 43.8226 117.457 47.3262H113.028C112.645 44.6641 111.812 42.7363 110.526 41.543C109.257 40.3496 107.474 39.7529 105.179 39.7529C102.364 39.7529 100.153 40.7933 98.5469 42.874C96.9557 44.9548 96.1602 47.9152 96.1602 51.7554V54.9912C96.1602 58.6172 96.9175 61.5011 98.4321 63.6431C99.9468 65.785 102.066 66.856 104.789 66.856C107.237 66.856 109.111 66.3052 110.412 65.2036C111.727 64.0868 112.599 62.1514 113.028 59.3975H117.457ZM127.073 48.1753C128.955 45.8651 131.403 44.71 134.417 44.71C139.664 44.71 142.311 47.6704 142.357 53.5913V70H138.111V53.5684C138.096 51.7783 137.683 50.4549 136.872 49.5981C136.076 48.7414 134.83 48.313 133.131 48.313C131.754 48.313 130.546 48.6802 129.505 49.4146C128.465 50.1489 127.654 51.1128 127.073 52.3062V70H122.827V34.75H127.073V48.1753ZM159.018 70.459C155.652 70.459 152.914 69.3574 150.802 67.1543C148.691 64.9359 147.635 61.9754 147.635 58.2729V57.4927C147.635 55.0295 148.102 52.834 149.035 50.9062C149.984 48.9632 151.299 47.4486 152.982 46.3623C154.681 45.2607 156.517 44.71 158.49 44.71C161.718 44.71 164.228 45.7733 166.018 47.8999C167.808 50.0265 168.703 53.0711 168.703 57.0337V58.8008H151.881C151.942 61.2487 152.653 63.23 154.015 64.7446C155.392 66.244 157.136 66.9937 159.248 66.9937C160.747 66.9937 162.017 66.6877 163.057 66.0757C164.097 65.4637 165.008 64.6528 165.788 63.6431L168.381 65.6626C166.301 68.8602 163.18 70.459 159.018 70.459ZM158.49 48.1982C156.777 48.1982 155.339 48.8255 154.176 50.0801C153.013 51.3193 152.294 53.0635 152.019 55.3125H164.457V54.9912C164.335 52.834 163.753 51.1663 162.713 49.9883C161.673 48.7949 160.265 48.1982 158.49 48.1982ZM188.095 63.4136C188.095 62.2661 187.659 61.3787 186.787 60.7515C185.93 60.1089 184.423 59.5581 182.266 59.0991C180.124 58.6401 178.418 58.0894 177.148 57.4468C175.893 56.8042 174.96 56.0392 174.348 55.1519C173.751 54.2645 173.453 53.2088 173.453 51.9849C173.453 49.95 174.31 48.2288 176.023 46.8213C177.752 45.4137 179.955 44.71 182.633 44.71C185.448 44.71 187.728 45.4367 189.472 46.8901C191.231 48.3436 192.111 50.2025 192.111 52.4668H187.842C187.842 51.304 187.345 50.3019 186.351 49.4604C185.371 48.619 184.132 48.1982 182.633 48.1982C181.088 48.1982 179.879 48.5348 179.007 49.208C178.135 49.8812 177.699 50.7609 177.699 51.8472C177.699 52.8722 178.104 53.6449 178.915 54.165C179.726 54.6852 181.187 55.1825 183.298 55.6567C185.425 56.131 187.146 56.6971 188.462 57.355C189.778 58.0129 190.749 58.8084 191.376 59.7417C192.019 60.6597 192.34 61.7842 192.34 63.1152C192.34 65.3337 191.453 67.116 189.678 68.4624C187.903 69.7935 185.601 70.459 182.771 70.459C180.782 70.459 179.022 70.1071 177.492 69.4033C175.962 68.6995 174.761 67.7204 173.889 66.4658C173.032 65.196 172.604 63.8267 172.604 62.3579H176.85C176.926 63.7808 177.492 64.9129 178.548 65.7544C179.619 66.5806 181.026 66.9937 182.771 66.9937C184.377 66.9937 185.662 66.6724 186.626 66.0298C187.605 65.3719 188.095 64.4998 188.095 63.4136ZM212.329 63.4136C212.329 62.2661 211.893 61.3787 211.021 60.7515C210.164 60.1089 208.657 59.5581 206.5 59.0991C204.358 58.6401 202.652 58.0894 201.382 57.4468C200.128 56.8042 199.194 56.0392 198.583 55.1519C197.986 54.2645 197.688 53.2088 197.688 51.9849C197.688 49.95 198.544 48.2288 200.258 46.8213C201.987 45.4137 204.19 44.71 206.867 44.71C209.682 44.71 211.962 45.4367 213.706 46.8901C215.465 48.3436 216.345 50.2025 216.345 52.4668H212.077C212.077 51.304 211.579 50.3019 210.585 49.4604C209.606 48.619 208.367 48.1982 206.867 48.1982C205.322 48.1982 204.113 48.5348 203.241 49.208C202.369 49.8812 201.933 50.7609 201.933 51.8472C201.933 52.8722 202.339 53.6449 203.149 54.165C203.96 54.6852 205.421 55.1825 207.533 55.6567C209.659 56.131 211.381 56.6971 212.696 57.355C214.012 58.0129 214.984 58.8084 215.611 59.7417C216.253 60.6597 216.575 61.7842 216.575 63.1152C216.575 65.3337 215.687 67.116 213.913 68.4624C212.138 69.7935 209.835 70.459 207.005 70.459C205.016 70.459 203.257 70.1071 201.727 69.4033C200.197 68.6995 198.996 67.7204 198.124 66.4658C197.267 65.196 196.838 63.8267 196.838 62.3579H201.084C201.16 63.7808 201.727 64.9129 202.782 65.7544C203.853 66.5806 205.261 66.9937 207.005 66.9937C208.611 66.9937 209.896 66.6724 210.86 66.0298C211.84 65.3719 212.329 64.4998 212.329 63.4136ZM222.197 67.7739C222.197 67.0396 222.411 66.4276 222.84 65.938C223.284 65.4484 223.941 65.2036 224.813 65.2036C225.686 65.2036 226.343 65.4484 226.787 65.938C227.246 66.4276 227.476 67.0396 227.476 67.7739C227.476 68.4777 227.246 69.0667 226.787 69.541C226.343 70.0153 225.686 70.2524 224.813 70.2524C223.941 70.2524 223.284 70.0153 222.84 69.541C222.411 69.0667 222.197 68.4777 222.197 67.7739ZM233.374 57.355C233.374 54.9224 233.848 52.7345 234.796 50.7915C235.76 48.8485 237.091 47.3491 238.79 46.2935C240.503 45.2378 242.454 44.71 244.642 44.71C248.023 44.71 250.754 45.8804 252.834 48.2212C254.931 50.562 255.979 53.6755 255.979 57.5615V57.8599C255.979 60.2772 255.512 62.4497 254.579 64.3774C253.661 66.2899 252.337 67.7816 250.608 68.8525C248.895 69.9235 246.921 70.459 244.688 70.459C241.322 70.459 238.591 69.2886 236.495 66.9478C234.414 64.6069 233.374 61.5088 233.374 57.6533V57.355ZM237.642 57.8599C237.642 60.6138 238.277 62.8245 239.547 64.4922C240.832 66.1598 242.546 66.9937 244.688 66.9937C246.845 66.9937 248.558 66.1522 249.828 64.4692C251.098 62.771 251.733 60.3996 251.733 57.355C251.733 54.6317 251.083 52.4285 249.782 50.7456C248.497 49.0474 246.784 48.1982 244.642 48.1982C242.546 48.1982 240.855 49.0321 239.57 50.6997C238.285 52.3674 237.642 54.7541 237.642 57.8599ZM273.305 48.9785C272.663 48.8714 271.966 48.8179 271.217 48.8179C268.432 48.8179 266.543 50.0036 265.548 52.375V70H261.303V45.1689H265.434L265.502 48.0376C266.895 45.8192 268.868 44.71 271.423 44.71C272.25 44.71 272.877 44.8171 273.305 45.0312V48.9785ZM275.761 57.3779C275.761 53.5072 276.656 50.432 278.446 48.1523C280.236 45.8574 282.607 44.71 285.56 44.71C288.589 44.71 290.953 45.7809 292.651 47.9229L292.858 45.1689H296.736V69.4033C296.736 72.6162 295.78 75.1483 293.868 76.9995C291.971 78.8507 289.416 79.7764 286.203 79.7764C284.413 79.7764 282.661 79.3939 280.947 78.6289C279.234 77.8639 277.926 76.8159 277.023 75.4849L279.226 72.9375C281.047 75.1865 283.273 76.311 285.904 76.311C287.97 76.311 289.576 75.7297 290.724 74.5669C291.886 73.4041 292.468 71.7671 292.468 69.6558V67.5215C290.77 69.4798 288.452 70.459 285.514 70.459C282.607 70.459 280.251 69.2886 278.446 66.9478C276.656 64.6069 275.761 61.417 275.761 57.3779ZM280.029 57.8599C280.029 60.6597 280.603 62.8628 281.75 64.4692C282.898 66.0604 284.504 66.856 286.57 66.856C289.247 66.856 291.213 65.6396 292.468 63.207V51.8701C291.167 49.4987 289.217 48.313 286.616 48.313C284.55 48.313 282.936 49.1162 281.773 50.7227C280.611 52.3291 280.029 54.7082 280.029 57.8599Z" fill="#6C8EE4"/>
<path d="M89 74.5898H299.926V76.8848H89V74.5898Z" fill="#6C8EE4"/>
<rect x="586.5" y="121.5" width="746" height="893" rx="23.5" fill="#E8ECF4" stroke="#6C8EE4" stroke-width="3"/>
<rect x="586.5" y="121.5" width="746" height="125" rx="23.5" fill="#E8ECF4" stroke="#6C8EE4" stroke-width="3"/>
<path d="M827.838 197.167H844.684V201H823.126V165.453H827.838V197.167ZM860.284 201.488C856.703 201.488 853.79 200.316 851.544 197.973C849.298 195.613 848.175 192.463 848.175 188.524V187.694C848.175 185.074 848.671 182.738 849.664 180.688C850.673 178.62 852.073 177.009 853.863 175.854C855.67 174.682 857.623 174.096 859.723 174.096C863.157 174.096 865.826 175.227 867.73 177.489C869.635 179.752 870.587 182.991 870.587 187.206V189.086H852.691C852.757 191.69 853.513 193.798 854.962 195.409C856.427 197.004 858.282 197.802 860.528 197.802C862.123 197.802 863.474 197.476 864.581 196.825C865.688 196.174 866.656 195.312 867.486 194.237L870.245 196.386C868.032 199.787 864.711 201.488 860.284 201.488ZM859.723 177.807C857.9 177.807 856.37 178.474 855.133 179.809C853.896 181.127 853.131 182.982 852.838 185.375H866.07V185.033C865.94 182.738 865.322 180.964 864.215 179.711C863.108 178.441 861.611 177.807 859.723 177.807ZM892.145 201C891.884 200.479 891.673 199.551 891.51 198.217C889.41 200.398 886.904 201.488 883.99 201.488C881.386 201.488 879.246 200.756 877.569 199.291C875.909 197.81 875.079 195.938 875.079 193.676C875.079 190.925 876.121 188.793 878.204 187.279C880.304 185.749 883.25 184.984 887.042 184.984H891.437V182.909C891.437 181.33 890.965 180.077 890.021 179.149C889.076 178.205 887.685 177.733 885.846 177.733C884.234 177.733 882.883 178.14 881.793 178.954C880.702 179.768 880.157 180.753 880.157 181.908H875.616C875.616 180.59 876.08 179.32 877.008 178.1C877.952 176.863 879.221 175.886 880.816 175.17C882.428 174.454 884.194 174.096 886.114 174.096C889.158 174.096 891.542 174.861 893.268 176.391C894.993 177.904 895.888 179.996 895.953 182.665V194.823C895.953 197.248 896.262 199.177 896.881 200.609V201H892.145ZM884.649 197.558C886.065 197.558 887.408 197.191 888.678 196.459C889.947 195.727 890.867 194.774 891.437 193.603V188.183H887.896C882.363 188.183 879.596 189.802 879.596 193.041C879.596 194.457 880.068 195.564 881.012 196.361C881.956 197.159 883.168 197.558 884.649 197.558ZM901.935 187.572C901.935 183.52 902.895 180.264 904.815 177.807C906.736 175.333 909.251 174.096 912.359 174.096C915.452 174.096 917.901 175.154 919.708 177.27V163.5H924.225V201H920.074L919.854 198.168C918.048 200.382 915.533 201.488 912.311 201.488C909.251 201.488 906.752 200.235 904.815 197.729C902.895 195.222 901.935 191.951 901.935 187.914V187.572ZM906.451 188.085C906.451 191.08 907.07 193.424 908.307 195.116C909.544 196.809 911.253 197.655 913.434 197.655C916.298 197.655 918.39 196.369 919.708 193.798V181.664C918.357 179.174 916.282 177.929 913.482 177.929C911.269 177.929 909.544 178.783 908.307 180.492C907.07 182.201 906.451 184.732 906.451 188.085ZM942.218 201.488C938.637 201.488 935.724 200.316 933.478 197.973C931.231 195.613 930.108 192.463 930.108 188.524V187.694C930.108 185.074 930.605 182.738 931.598 180.688C932.607 178.62 934.007 177.009 935.797 175.854C937.604 174.682 939.557 174.096 941.656 174.096C945.09 174.096 947.76 175.227 949.664 177.489C951.568 179.752 952.521 182.991 952.521 187.206V189.086H934.625C934.69 191.69 935.447 193.798 936.896 195.409C938.36 197.004 940.216 197.802 942.462 197.802C944.057 197.802 945.408 197.476 946.515 196.825C947.621 196.174 948.59 195.312 949.42 194.237L952.179 196.386C949.965 199.787 946.645 201.488 942.218 201.488ZM941.656 177.807C939.833 177.807 938.303 178.474 937.066 179.809C935.829 181.127 935.064 182.982 934.771 185.375H948.004V185.033C947.874 182.738 947.255 180.964 946.148 179.711C945.042 178.441 943.544 177.807 941.656 177.807ZM970.538 178.637C969.854 178.523 969.114 178.466 968.316 178.466C965.354 178.466 963.344 179.727 962.286 182.25V201H957.77V174.584H962.164L962.237 177.636C963.718 175.276 965.818 174.096 968.536 174.096C969.415 174.096 970.082 174.21 970.538 174.438V178.637ZM997.076 188.085C997.076 192.121 996.148 195.368 994.293 197.826C992.438 200.268 989.947 201.488 986.822 201.488C983.486 201.488 980.906 200.308 979.083 197.948L978.863 201H974.713V163.5H979.229V177.489C981.052 175.227 983.567 174.096 986.773 174.096C989.98 174.096 992.494 175.308 994.317 177.733C996.157 180.159 997.076 183.479 997.076 187.694V188.085ZM992.56 187.572C992.56 184.496 991.965 182.12 990.777 180.443C989.589 178.767 987.88 177.929 985.65 177.929C982.672 177.929 980.532 179.312 979.229 182.079V193.505C980.613 196.272 982.77 197.655 985.699 197.655C987.864 197.655 989.549 196.817 990.753 195.141C991.957 193.464 992.56 190.941 992.56 187.572ZM1001.59 187.548C1001.59 184.96 1002.1 182.632 1003.11 180.565C1004.13 178.498 1005.55 176.903 1007.35 175.78C1009.18 174.657 1011.25 174.096 1013.58 174.096C1017.18 174.096 1020.08 175.341 1022.3 177.831C1024.53 180.321 1025.64 183.633 1025.64 187.768V188.085C1025.64 190.657 1025.14 192.968 1024.15 195.019C1023.17 197.053 1021.77 198.64 1019.93 199.779C1018.1 200.919 1016.01 201.488 1013.63 201.488C1010.05 201.488 1007.14 200.243 1004.91 197.753C1002.7 195.263 1001.59 191.967 1001.59 187.865V187.548ZM1006.13 188.085C1006.13 191.015 1006.81 193.367 1008.16 195.141C1009.53 196.915 1011.35 197.802 1013.63 197.802C1015.92 197.802 1017.75 196.907 1019.1 195.116C1020.45 193.31 1021.12 190.787 1021.12 187.548C1021.12 184.651 1020.43 182.307 1019.05 180.517C1017.68 178.71 1015.86 177.807 1013.58 177.807C1011.35 177.807 1009.55 178.694 1008.18 180.468C1006.82 182.242 1006.13 184.781 1006.13 188.085ZM1047.61 201C1047.35 200.479 1047.14 199.551 1046.98 198.217C1044.88 200.398 1042.37 201.488 1039.46 201.488C1036.85 201.488 1034.71 200.756 1033.04 199.291C1031.38 197.81 1030.55 195.938 1030.55 193.676C1030.55 190.925 1031.59 188.793 1033.67 187.279C1035.77 185.749 1038.72 184.984 1042.51 184.984H1046.91V182.909C1046.91 181.33 1046.43 180.077 1045.49 179.149C1044.55 178.205 1043.15 177.733 1041.31 177.733C1039.7 177.733 1038.35 178.14 1037.26 178.954C1036.17 179.768 1035.63 180.753 1035.63 181.908H1031.08C1031.08 180.59 1031.55 179.32 1032.48 178.1C1033.42 176.863 1034.69 175.886 1036.29 175.17C1037.9 174.454 1039.66 174.096 1041.58 174.096C1044.63 174.096 1047.01 174.861 1048.74 176.391C1050.46 177.904 1051.36 179.996 1051.42 182.665V194.823C1051.42 197.248 1051.73 199.177 1052.35 200.609V201H1047.61ZM1040.12 197.558C1041.53 197.558 1042.88 197.191 1044.15 196.459C1045.42 195.727 1046.34 194.774 1046.91 193.603V188.183H1043.37C1037.83 188.183 1035.06 189.802 1035.06 193.041C1035.06 194.457 1035.54 195.564 1036.48 196.361C1037.42 197.159 1038.64 197.558 1040.12 197.558ZM1071.27 178.637C1070.59 178.523 1069.85 178.466 1069.05 178.466C1066.09 178.466 1064.08 179.727 1063.02 182.25V201H1058.5V174.584H1062.9L1062.97 177.636C1064.45 175.276 1066.55 174.096 1069.27 174.096C1070.15 174.096 1070.81 174.21 1071.27 174.438V178.637ZM1073.86 187.572C1073.86 183.52 1074.82 180.264 1076.74 177.807C1078.66 175.333 1081.17 174.096 1084.28 174.096C1087.38 174.096 1089.83 175.154 1091.63 177.27V163.5H1096.15V201H1092L1091.78 198.168C1089.97 200.382 1087.46 201.488 1084.23 201.488C1081.17 201.488 1078.68 200.235 1076.74 197.729C1074.82 195.222 1073.86 191.951 1073.86 187.914V187.572ZM1078.38 188.085C1078.38 191.08 1078.99 193.424 1080.23 195.116C1081.47 196.809 1083.18 197.655 1085.36 197.655C1088.22 197.655 1090.31 196.369 1091.63 193.798V181.664C1090.28 179.174 1088.21 177.929 1085.41 177.929C1083.19 177.929 1081.47 178.783 1080.23 180.492C1078.99 182.201 1078.38 184.732 1078.38 188.085Z" fill="#6C8EE4"/>
<defs>
<filter id="filter0_d" x="1842.5" y="24.5" width="61" height="61" filterUnits="userSpaceOnUse" color-interpolation-filters="sRGB">
<feFlood flood-opacity="0" result="BackgroundImageFix"/>
<feColorMatrix in="SourceAlpha" type="matrix" values="0 0 0 0 0 0 0 0 0 0 0 0 0 0 0 0 0 0 127 0"/>
<feOffset dy="4"/>
<feGaussianBlur stdDeviation="2"/>
<feColorMatrix type="matrix" values="0 0 0 0 0 0 0 0 0 0 0 0 0 0 0 0 0 0 0.25 0"/>
<feBlend mode="normal" in2="BackgroundImageFix" result="effect1_dropShadow"/>
<feBlend mode="normal" in="SourceGraphic" in2="effect1_dropShadow" result="shape"/>
</filter>
<filter id="filter1_d" x="1774.5" y="24.5" width="61" height="61" filterUnits="userSpaceOnUse" color-interpolation-filters="sRGB">
<feFlood flood-opacity="0" result="BackgroundImageFix"/>
<feColorMatrix in="SourceAlpha" type="matrix" values="0 0 0 0 0 0 0 0 0 0 0 0 0 0 0 0 0 0 127 0"/>
<feOffset dy="4"/>
<feGaussianBlur stdDeviation="2"/>
<feColorMatrix type="matrix" values="0 0 0 0 0 0 0 0 0 0 0 0 0 0 0 0 0 0 0.25 0"/>
<feBlend mode="normal" in2="BackgroundImageFix" result="effect1_dropShadow"/>
<feBlend mode="normal" in="SourceGraphic" in2="effect1_dropShadow" result="shape"/>
</filter>
<filter id="filter2_d" x="1706" y="26" width="58" height="58" filterUnits="userSpaceOnUse" color-interpolation-filters="sRGB">
<feFlood flood-opacity="0" result="BackgroundImageFix"/>
<feColorMatrix in="SourceAlpha" type="matrix" values="0 0 0 0 0 0 0 0 0 0 0 0 0 0 0 0 0 0 127 0"/>
<feOffset dy="4"/>
<feGaussianBlur stdDeviation="2"/>
<feColorMatrix type="matrix" values="0 0 0 0 0 0 0 0 0 0 0 0 0 0 0 0 0 0 0.25 0"/>
<feBlend mode="normal" in2="BackgroundImageFix" result="effect1_dropShadow"/>
<feBlend mode="normal" in="SourceGraphic" in2="effect1_dropShadow" result="shape"/>
</filter>
<filter id="filter3_d" x="1636.5" y="25.5" width="61" height="61" filterUnits="userSpaceOnUse" color-interpolation-filters="sRGB">
<feFlood flood-opacity="0" result="BackgroundImageFix"/>
<feColorMatrix in="SourceAlpha" type="matrix" values="0 0 0 0 0 0 0 0 0 0 0 0 0 0 0 0 0 0 127 0"/>
<feOffset dy="4"/>
<feGaussianBlur stdDeviation="2"/>
<feColorMatrix type="matrix" values="0 0 0 0 0 0 0 0 0 0 0 0 0 0 0 0 0 0 0.25 0"/>
<feBlend mode="normal" in2="BackgroundImageFix" result="effect1_dropShadow"/>
<feBlend mode="normal" in="SourceGraphic" in2="effect1_dropShadow" result="shape"/>
</filter>
<clipPath id="clip0">
<rect width="35.5858" height="35.5858" fill="white" transform="translate(1791.02 30) rotate(9.73161)"/>
</clipPath>
<clipPath id="clip1">
<rect width="33" height="33" fill="white" transform="translate(1650 34)"/>
</clipPath>
</defs>
</svg>
