<svg width="100" height="100" viewBox="0 0 100 100" fill="none" xmlns="http://www.w3.org/2000/svg">
<path d="M48.9795 52.0764C46.9539 51.0055 44.7061 50.5622 42.2532 50.7611C38.6206 51.0556 35.837 51.5022 33.9611 52.1275L33.832 52.1705L33.7191 52.2465L28.4213 55.8109L28.3082 55.887L28.2196 55.9905L26.8875 57.5475L26.5301 57.3346L29.2535 55.0651L30.0769 54.3789L29.3353 53.605L23.3368 47.3457L23.6573 47.4919L24.3505 47.8081L24.8393 47.2236L27.0854 44.538L27.7264 43.7716L26.9606 43.13L25.1539 41.6163L24.8217 41.3379L24.3914 41.3901L22.7801 41.5854L22.7684 41.5868L36.9757 32.2317L37.2255 32.0672L37.344 31.7926C37.6226 31.1468 38.2202 30.3558 39.2375 29.4239C40.2453 28.5007 41.6128 27.4863 43.3571 26.382C46.9041 24.1367 50.2881 22.0054 53.5093 19.9881L53.6783 19.8823L53.7938 19.7196L55.1693 17.7827L57.3379 22.6711L57.4935 23.022L57.8439 23.1786C63.5815 25.7429 67.686 28.7158 70.252 32.0547C72.8872 35.4835 75.0158 39.1956 76.6393 43.1929C77.9162 47.8351 78.5498 51.8346 78.5654 55.2048C78.5816 58.6735 78.4363 61.976 78.1307 65.113C77.8192 68.31 77.6144 71.5715 77.5161 74.8972C77.4245 77.9943 77.8573 81.4908 78.7946 85.377H31.2939C31.2617 81.8299 32.0192 78.6958 33.5408 75.9484C35.2042 72.945 37.4473 70.2105 40.2821 67.7463C44.0977 66.634 46.8127 64.8666 48.1099 62.2906C49.1911 60.1437 50.5959 58.0876 52.3303 56.1227C52.8827 55.7455 53.2039 55.6935 53.3461 55.7073C53.9471 55.7654 54.5768 55.7351 55.2302 55.6271C58.0818 55.2214 60.4027 53.6542 62.1785 51.052C63.9334 48.4805 64.8465 45.6062 64.9158 42.4536L64.9191 42.3034L64.8781 42.1588L63.9503 38.8873L62.0138 38.9359C60.2342 46.669 57.319 50.2248 53.6745 50.718L53.6672 50.719C52.9977 50.8147 52.278 50.9027 51.5077 50.9829C50.6489 51.0724 49.8037 51.4712 48.9795 52.0764ZM19.6932 47.4758L19.5721 43.6915L22.042 42.0651L22.0389 42.0704L20.4275 44.8048L19.8638 45.7615L20.8741 46.2223L21.3271 46.429L19.6932 47.4758ZM22.3247 53.9314L17.6812 57.2424L16.3941 58.1602L17.7747 58.93L28.3704 64.8382L29.2496 65.3285L29.734 64.4461L32.4684 59.4656C33.201 58.1312 34.5489 57.1883 36.7247 56.7413C38.6318 56.3494 41.1153 56.3549 44.2075 56.802C43.7047 57.5894 43.0809 58.5371 42.3343 59.6469C41.3048 61.1772 39.6853 62.2128 37.3479 62.6923L37.0983 62.7435L36.9036 62.9078C32.4224 66.692 29.3211 70.687 27.6812 74.9063C26.0533 79.0948 25.4125 84.1517 25.7103 90.0407L25.7583 90.9902H26.709H87.3535H88.8676L88.2732 89.5977C87.1653 87.002 86.2471 83.9673 85.5251 80.4854C84.8195 77.0832 84.7439 73.3512 85.3164 69.2799L85.3178 69.2699L85.319 69.2599C86.7309 57.5053 85.9625 47.5124 82.9451 39.327C79.9074 31.0867 72.7321 24.1871 61.6587 18.5559L57.1157 8.28683L56.4235 6.72232L55.3999 8.09307L49.886 15.477C46.3294 17.8778 42.7971 20.1754 39.289 22.37C37.4823 23.5002 36.0611 24.5337 35.0548 25.4704C34.242 26.2269 33.5858 27.0224 33.3072 27.8458L14.2905 40.4756L13.8219 40.7868L13.8446 41.349L14.4305 55.8509L14.5047 57.6861L16.0058 56.6279L21.2817 52.9088L22.3247 53.9314ZM50.6742 33.8613V33.8613H50.6836C51.0673 33.8613 51.64 33.7787 52.031 33.3011C52.4337 32.8094 52.3839 32.2222 52.2881 31.8419C52.0999 31.095 51.4969 30.1694 50.688 29.1421C49.8451 28.0716 48.998 27.2529 48.1387 26.8394C47.6946 26.6257 47.2109 26.5026 46.7077 26.5439C46.1949 26.5861 45.7397 26.7928 45.3559 27.1126L45.3495 27.118L45.3432 27.1234L39.6791 32.0063L37.6696 33.7386L40.3226 33.7636L50.6742 33.8613Z" fill="#E8ECF4" stroke="#506AAD" stroke-width="2"/>
<path d="M30.6614 83.3157C31.0064 79.604 32.1584 76.495 34.3731 73.299C37.0886 69.3802 38.9793 67.6277 41.9483 66.2778C45.4299 64.6947 45.8245 64.3305 48.5197 60.2118C51.5573 55.5698 52.2497 54.9172 54.1478 54.9059C56.2136 54.8937 58.7821 53.6695 60.4655 51.8949C63.2067 49.0052 64.6477 43.5943 63.5564 40.2879L63.0238 38.6742L61.8693 42.1154C60.2028 47.0823 58.6713 49.2688 55.8431 50.7192C54.9785 51.1626 53.7806 51.5254 53.1812 51.5254C52.5818 51.5254 51.3967 51.8156 50.5477 52.1704C49.1517 52.7537 48.8022 52.7484 46.895 52.1149C44.6203 51.3593 39.8599 51.5105 36.0277 52.4599C33.9369 52.9779 28.2289 56.5851 27.822 57.6456C27.5234 58.4237 26.6397 58.5042 25.9514 57.8158C25.5816 57.4461 25.886 56.9506 27.1983 55.786L28.9344 54.2454L25.5354 50.6638L22.1365 47.0822L20.6553 47.7885L19.1741 48.4948L18.9091 46.5612C18.7633 45.4976 18.644 44.363 18.644 44.0397C18.644 43.7165 22.6494 40.8008 27.545 37.5604C32.4405 34.3201 36.9691 31.036 37.6085 30.2624C39.3789 28.1207 39.9742 27.6756 46.9204 23.3001C51.5966 20.3546 53.6352 18.8131 54.3201 17.7049L55.2655 16.1752L56.7087 19.402C57.9792 22.2426 58.3602 22.7225 59.8923 23.4118C69.191 27.5957 76.1772 36.7599 78.4173 47.7118C79.372 52.3792 79.3852 54.9924 78.5455 73.1355C78.3393 77.5921 78.4332 79.5914 78.9709 82.1851C79.3504 84.0161 79.661 85.6846 79.661 85.8927C79.661 86.1104 69.1988 86.2711 55.0238 86.2711H30.3867L30.6614 83.3157ZM25.7713 43.1817C24.4438 41.7686 23.0429 41.9178 22.0292 43.5805C20.9276 45.3871 20.9489 45.4903 22.5635 46.1735C23.8786 46.73 24.0025 46.6977 25.3155 45.4581L26.6904 44.16L25.7713 43.1817ZM51.3364 31.8316C51.1089 30.5319 48.7714 27.8234 47.6299 27.537C46.426 27.2348 45.59 27.7391 42.3729 30.7086L40.0423 32.8597L45.7626 32.7645C51.2024 32.6742 51.4758 32.6284 51.3364 31.8316Z" fill="#506AAD"/>
</svg>
